<mxfile host="app.diagrams.net" agent="Mozilla/5.0 (Macintosh; Intel Mac OS X 10_15_7) AppleWebKit/605.1.15 (KHTML, like Gecko) Version/17.3.1 Safari/605.1.15" version="26.0.14">
  <diagram name="Page-1" id="Dd2k6ZitIPzUoGSmlqJK">
    <mxGraphModel dx="2931" dy="1789" grid="1" gridSize="10" guides="1" tooltips="1" connect="1" arrows="1" fold="1" page="1" pageScale="1" pageWidth="827" pageHeight="1169" math="0" shadow="0">
      <root>
        <mxCell id="0" />
        <mxCell id="1" parent="0" />
        <mxCell id="fZSX2Tx-VuzL_oRfiSZg-1" value="" style="ellipse;whiteSpace=wrap;html=1;aspect=fixed;strokeColor=#4D4D4D;fillColor=#4D4D4D;" vertex="1" parent="1">
          <mxGeometry x="160" y="360" width="40" height="40" as="geometry" />
        </mxCell>
        <mxCell id="fZSX2Tx-VuzL_oRfiSZg-2" style="rounded=0;orthogonalLoop=1;jettySize=auto;html=1;exitX=1;exitY=0.5;exitDx=0;exitDy=0;entryX=0;entryY=0.5;entryDx=0;entryDy=0;endArrow=none;startFill=0;" edge="1" parent="1" source="fZSX2Tx-VuzL_oRfiSZg-3" target="fZSX2Tx-VuzL_oRfiSZg-6">
          <mxGeometry relative="1" as="geometry" />
        </mxCell>
        <mxCell id="fZSX2Tx-VuzL_oRfiSZg-3" value="" style="ellipse;whiteSpace=wrap;html=1;aspect=fixed;strokeColor=#3333FF;fillColor=#3333FF;" vertex="1" parent="1">
          <mxGeometry x="160" y="200" width="40" height="40" as="geometry" />
        </mxCell>
        <mxCell id="fZSX2Tx-VuzL_oRfiSZg-4" value="" style="ellipse;whiteSpace=wrap;html=1;aspect=fixed;strokeColor=#3333FF;fillColor=#3333FF;" vertex="1" parent="1">
          <mxGeometry x="160" y="280" width="40" height="40" as="geometry" />
        </mxCell>
        <mxCell id="fZSX2Tx-VuzL_oRfiSZg-5" value="" style="ellipse;whiteSpace=wrap;html=1;aspect=fixed;strokeColor=#4D4D4D;fillColor=#4D4D4D;" vertex="1" parent="1">
          <mxGeometry x="160" y="440" width="40" height="40" as="geometry" />
        </mxCell>
        <mxCell id="fZSX2Tx-VuzL_oRfiSZg-6" value="" style="ellipse;whiteSpace=wrap;html=1;aspect=fixed;strokeColor=#3333FF;fillColor=#3333FF;" vertex="1" parent="1">
          <mxGeometry x="360" y="160" width="40" height="40" as="geometry" />
        </mxCell>
        <mxCell id="fZSX2Tx-VuzL_oRfiSZg-7" value="" style="ellipse;whiteSpace=wrap;html=1;aspect=fixed;strokeColor=#3333FF;fillColor=#3333FF;" vertex="1" parent="1">
          <mxGeometry x="360" y="320" width="40" height="40" as="geometry" />
        </mxCell>
        <mxCell id="fZSX2Tx-VuzL_oRfiSZg-8" value="" style="ellipse;whiteSpace=wrap;html=1;aspect=fixed;strokeColor=#3333FF;fillColor=#3333FF;" vertex="1" parent="1">
          <mxGeometry x="360" y="240" width="40" height="40" as="geometry" />
        </mxCell>
        <mxCell id="fZSX2Tx-VuzL_oRfiSZg-9" value="" style="ellipse;whiteSpace=wrap;html=1;aspect=fixed;strokeColor=#4D4D4D;fillColor=#4D4D4D;" vertex="1" parent="1">
          <mxGeometry x="360" y="480" width="40" height="40" as="geometry" />
        </mxCell>
        <mxCell id="fZSX2Tx-VuzL_oRfiSZg-10" value="" style="ellipse;whiteSpace=wrap;html=1;aspect=fixed;strokeColor=#4D4D4D;fillColor=#4D4D4D;" vertex="1" parent="1">
          <mxGeometry x="360" y="400" width="40" height="40" as="geometry" />
        </mxCell>
        <mxCell id="fZSX2Tx-VuzL_oRfiSZg-11" value="" style="ellipse;whiteSpace=wrap;html=1;aspect=fixed;strokeColor=#CC0000;fillColor=#CC0000;" vertex="1" parent="1">
          <mxGeometry x="560" y="280" width="40" height="40" as="geometry" />
        </mxCell>
        <mxCell id="fZSX2Tx-VuzL_oRfiSZg-12" value="" style="ellipse;whiteSpace=wrap;html=1;aspect=fixed;strokeColor=#CC0000;fillColor=#CC0000;" vertex="1" parent="1">
          <mxGeometry x="560" y="360" width="40" height="40" as="geometry" />
        </mxCell>
        <mxCell id="fZSX2Tx-VuzL_oRfiSZg-13" style="rounded=0;orthogonalLoop=1;jettySize=auto;html=1;exitX=1;exitY=0.5;exitDx=0;exitDy=0;entryX=0;entryY=0.5;entryDx=0;entryDy=0;endArrow=none;startFill=0;" edge="1" parent="1" source="fZSX2Tx-VuzL_oRfiSZg-3" target="fZSX2Tx-VuzL_oRfiSZg-8">
          <mxGeometry relative="1" as="geometry">
            <mxPoint x="210" y="230" as="sourcePoint" />
            <mxPoint x="330" y="190" as="targetPoint" />
          </mxGeometry>
        </mxCell>
        <mxCell id="fZSX2Tx-VuzL_oRfiSZg-14" style="rounded=0;orthogonalLoop=1;jettySize=auto;html=1;exitX=1;exitY=0.5;exitDx=0;exitDy=0;entryX=0;entryY=0.5;entryDx=0;entryDy=0;endArrow=none;startFill=0;" edge="1" parent="1" source="fZSX2Tx-VuzL_oRfiSZg-3" target="fZSX2Tx-VuzL_oRfiSZg-7">
          <mxGeometry relative="1" as="geometry">
            <mxPoint x="210" y="230" as="sourcePoint" />
            <mxPoint x="330" y="270" as="targetPoint" />
          </mxGeometry>
        </mxCell>
        <mxCell id="fZSX2Tx-VuzL_oRfiSZg-15" style="rounded=0;orthogonalLoop=1;jettySize=auto;html=1;exitX=1;exitY=0.5;exitDx=0;exitDy=0;endArrow=none;startFill=0;entryX=0;entryY=0.5;entryDx=0;entryDy=0;" edge="1" parent="1" source="fZSX2Tx-VuzL_oRfiSZg-4" target="fZSX2Tx-VuzL_oRfiSZg-6">
          <mxGeometry relative="1" as="geometry">
            <mxPoint x="210" y="230" as="sourcePoint" />
            <mxPoint x="320" y="180" as="targetPoint" />
          </mxGeometry>
        </mxCell>
        <mxCell id="fZSX2Tx-VuzL_oRfiSZg-16" style="rounded=0;orthogonalLoop=1;jettySize=auto;html=1;exitX=1;exitY=0.5;exitDx=0;exitDy=0;entryX=0;entryY=0.5;entryDx=0;entryDy=0;endArrow=none;startFill=0;" edge="1" parent="1" source="fZSX2Tx-VuzL_oRfiSZg-3" target="fZSX2Tx-VuzL_oRfiSZg-9">
          <mxGeometry relative="1" as="geometry">
            <mxPoint x="220" y="240" as="sourcePoint" />
            <mxPoint x="340" y="360" as="targetPoint" />
          </mxGeometry>
        </mxCell>
        <mxCell id="fZSX2Tx-VuzL_oRfiSZg-17" style="rounded=0;orthogonalLoop=1;jettySize=auto;html=1;exitX=1;exitY=0.5;exitDx=0;exitDy=0;entryX=0;entryY=0.5;entryDx=0;entryDy=0;endArrow=none;startFill=0;" edge="1" parent="1" source="fZSX2Tx-VuzL_oRfiSZg-3" target="fZSX2Tx-VuzL_oRfiSZg-10">
          <mxGeometry relative="1" as="geometry">
            <mxPoint x="230" y="250" as="sourcePoint" />
            <mxPoint x="350" y="370" as="targetPoint" />
          </mxGeometry>
        </mxCell>
        <mxCell id="fZSX2Tx-VuzL_oRfiSZg-18" style="rounded=0;orthogonalLoop=1;jettySize=auto;html=1;exitX=0;exitY=0.5;exitDx=0;exitDy=0;entryX=1;entryY=0.5;entryDx=0;entryDy=0;endArrow=none;startFill=0;" edge="1" parent="1" source="fZSX2Tx-VuzL_oRfiSZg-8" target="fZSX2Tx-VuzL_oRfiSZg-1">
          <mxGeometry relative="1" as="geometry">
            <mxPoint x="240" y="260" as="sourcePoint" />
            <mxPoint x="360" y="380" as="targetPoint" />
          </mxGeometry>
        </mxCell>
        <mxCell id="fZSX2Tx-VuzL_oRfiSZg-19" style="rounded=0;orthogonalLoop=1;jettySize=auto;html=1;exitX=0;exitY=0.5;exitDx=0;exitDy=0;entryX=1;entryY=0.5;entryDx=0;entryDy=0;endArrow=none;startFill=0;" edge="1" parent="1" source="fZSX2Tx-VuzL_oRfiSZg-6" target="fZSX2Tx-VuzL_oRfiSZg-5">
          <mxGeometry relative="1" as="geometry">
            <mxPoint x="250" y="270" as="sourcePoint" />
            <mxPoint x="370" y="390" as="targetPoint" />
          </mxGeometry>
        </mxCell>
        <mxCell id="fZSX2Tx-VuzL_oRfiSZg-20" style="rounded=0;orthogonalLoop=1;jettySize=auto;html=1;exitX=0;exitY=0.5;exitDx=0;exitDy=0;entryX=1;entryY=0.5;entryDx=0;entryDy=0;endArrow=none;startFill=0;" edge="1" parent="1" source="fZSX2Tx-VuzL_oRfiSZg-8" target="fZSX2Tx-VuzL_oRfiSZg-5">
          <mxGeometry relative="1" as="geometry">
            <mxPoint x="330" y="190" as="sourcePoint" />
            <mxPoint x="210" y="470" as="targetPoint" />
          </mxGeometry>
        </mxCell>
        <mxCell id="fZSX2Tx-VuzL_oRfiSZg-21" style="rounded=0;orthogonalLoop=1;jettySize=auto;html=1;entryX=1;entryY=0.5;entryDx=0;entryDy=0;endArrow=none;startFill=0;exitX=0;exitY=0.5;exitDx=0;exitDy=0;" edge="1" parent="1" source="fZSX2Tx-VuzL_oRfiSZg-9" target="fZSX2Tx-VuzL_oRfiSZg-5">
          <mxGeometry relative="1" as="geometry">
            <mxPoint x="320" y="500" as="sourcePoint" />
            <mxPoint x="210" y="470" as="targetPoint" />
          </mxGeometry>
        </mxCell>
        <mxCell id="fZSX2Tx-VuzL_oRfiSZg-22" style="rounded=0;orthogonalLoop=1;jettySize=auto;html=1;exitX=0;exitY=0.5;exitDx=0;exitDy=0;endArrow=none;startFill=0;entryX=1;entryY=0.5;entryDx=0;entryDy=0;" edge="1" parent="1" source="fZSX2Tx-VuzL_oRfiSZg-7" target="fZSX2Tx-VuzL_oRfiSZg-5">
          <mxGeometry relative="1" as="geometry">
            <mxPoint x="340" y="280" as="sourcePoint" />
            <mxPoint x="200" y="460" as="targetPoint" />
          </mxGeometry>
        </mxCell>
        <mxCell id="fZSX2Tx-VuzL_oRfiSZg-23" style="rounded=0;orthogonalLoop=1;jettySize=auto;html=1;exitX=0;exitY=0.5;exitDx=0;exitDy=0;entryX=1;entryY=0.5;entryDx=0;entryDy=0;endArrow=none;startFill=0;" edge="1" parent="1" source="fZSX2Tx-VuzL_oRfiSZg-7" target="fZSX2Tx-VuzL_oRfiSZg-1">
          <mxGeometry relative="1" as="geometry">
            <mxPoint x="330" y="270" as="sourcePoint" />
            <mxPoint x="210" y="390" as="targetPoint" />
          </mxGeometry>
        </mxCell>
        <mxCell id="fZSX2Tx-VuzL_oRfiSZg-24" style="rounded=0;orthogonalLoop=1;jettySize=auto;html=1;exitX=0;exitY=0.5;exitDx=0;exitDy=0;entryX=1;entryY=0.5;entryDx=0;entryDy=0;endArrow=none;startFill=0;" edge="1" parent="1" source="fZSX2Tx-VuzL_oRfiSZg-6" target="fZSX2Tx-VuzL_oRfiSZg-1">
          <mxGeometry relative="1" as="geometry">
            <mxPoint x="340" y="280" as="sourcePoint" />
            <mxPoint x="220" y="400" as="targetPoint" />
          </mxGeometry>
        </mxCell>
        <mxCell id="fZSX2Tx-VuzL_oRfiSZg-25" style="rounded=0;orthogonalLoop=1;jettySize=auto;html=1;exitX=1;exitY=0.5;exitDx=0;exitDy=0;endArrow=none;startFill=0;entryX=0;entryY=0.5;entryDx=0;entryDy=0;" edge="1" parent="1" source="fZSX2Tx-VuzL_oRfiSZg-4" target="fZSX2Tx-VuzL_oRfiSZg-8">
          <mxGeometry relative="1" as="geometry">
            <mxPoint x="210" y="310" as="sourcePoint" />
            <mxPoint x="330" y="190" as="targetPoint" />
          </mxGeometry>
        </mxCell>
        <mxCell id="fZSX2Tx-VuzL_oRfiSZg-26" style="rounded=0;orthogonalLoop=1;jettySize=auto;html=1;exitX=1;exitY=0.5;exitDx=0;exitDy=0;endArrow=none;startFill=0;entryX=0;entryY=0.5;entryDx=0;entryDy=0;" edge="1" parent="1" source="fZSX2Tx-VuzL_oRfiSZg-4" target="fZSX2Tx-VuzL_oRfiSZg-7">
          <mxGeometry relative="1" as="geometry">
            <mxPoint x="210" y="310" as="sourcePoint" />
            <mxPoint x="330" y="270" as="targetPoint" />
          </mxGeometry>
        </mxCell>
        <mxCell id="fZSX2Tx-VuzL_oRfiSZg-27" style="rounded=0;orthogonalLoop=1;jettySize=auto;html=1;exitX=1;exitY=0.5;exitDx=0;exitDy=0;endArrow=none;startFill=0;entryX=0;entryY=0.5;entryDx=0;entryDy=0;" edge="1" parent="1" source="fZSX2Tx-VuzL_oRfiSZg-4" target="fZSX2Tx-VuzL_oRfiSZg-10">
          <mxGeometry relative="1" as="geometry">
            <mxPoint x="210" y="310" as="sourcePoint" />
            <mxPoint x="330" y="350" as="targetPoint" />
          </mxGeometry>
        </mxCell>
        <mxCell id="fZSX2Tx-VuzL_oRfiSZg-28" style="rounded=0;orthogonalLoop=1;jettySize=auto;html=1;exitX=1;exitY=0.5;exitDx=0;exitDy=0;endArrow=none;startFill=0;entryX=0;entryY=0.5;entryDx=0;entryDy=0;" edge="1" parent="1" source="fZSX2Tx-VuzL_oRfiSZg-4" target="fZSX2Tx-VuzL_oRfiSZg-9">
          <mxGeometry relative="1" as="geometry">
            <mxPoint x="210" y="310" as="sourcePoint" />
            <mxPoint x="330" y="430" as="targetPoint" />
          </mxGeometry>
        </mxCell>
        <mxCell id="fZSX2Tx-VuzL_oRfiSZg-29" style="rounded=0;orthogonalLoop=1;jettySize=auto;html=1;endArrow=none;startFill=0;entryX=1;entryY=0.5;entryDx=0;entryDy=0;exitX=0;exitY=0.5;exitDx=0;exitDy=0;" edge="1" parent="1" source="fZSX2Tx-VuzL_oRfiSZg-10" target="fZSX2Tx-VuzL_oRfiSZg-5">
          <mxGeometry relative="1" as="geometry">
            <mxPoint x="330" y="510" as="sourcePoint" />
            <mxPoint x="200" y="460" as="targetPoint" />
          </mxGeometry>
        </mxCell>
        <mxCell id="fZSX2Tx-VuzL_oRfiSZg-30" style="rounded=0;orthogonalLoop=1;jettySize=auto;html=1;exitX=0;exitY=0.5;exitDx=0;exitDy=0;entryX=1;entryY=0.5;entryDx=0;entryDy=0;endArrow=none;startFill=0;" edge="1" parent="1" source="fZSX2Tx-VuzL_oRfiSZg-10" target="fZSX2Tx-VuzL_oRfiSZg-1">
          <mxGeometry relative="1" as="geometry">
            <mxPoint x="330" y="350" as="sourcePoint" />
            <mxPoint x="210" y="390" as="targetPoint" />
          </mxGeometry>
        </mxCell>
        <mxCell id="fZSX2Tx-VuzL_oRfiSZg-31" style="rounded=0;orthogonalLoop=1;jettySize=auto;html=1;exitX=0;exitY=0.5;exitDx=0;exitDy=0;entryX=1;entryY=0.5;entryDx=0;entryDy=0;endArrow=none;startFill=0;" edge="1" parent="1" source="fZSX2Tx-VuzL_oRfiSZg-9" target="fZSX2Tx-VuzL_oRfiSZg-1">
          <mxGeometry relative="1" as="geometry">
            <mxPoint x="330" y="430" as="sourcePoint" />
            <mxPoint x="210" y="390" as="targetPoint" />
          </mxGeometry>
        </mxCell>
        <mxCell id="fZSX2Tx-VuzL_oRfiSZg-32" style="rounded=0;orthogonalLoop=1;jettySize=auto;html=1;exitX=1;exitY=0.5;exitDx=0;exitDy=0;entryX=0;entryY=0.5;entryDx=0;entryDy=0;endArrow=none;startFill=0;" edge="1" parent="1" source="fZSX2Tx-VuzL_oRfiSZg-6" target="fZSX2Tx-VuzL_oRfiSZg-11">
          <mxGeometry relative="1" as="geometry">
            <mxPoint x="490" y="180" as="sourcePoint" />
            <mxPoint x="610" y="140" as="targetPoint" />
          </mxGeometry>
        </mxCell>
        <mxCell id="fZSX2Tx-VuzL_oRfiSZg-33" style="rounded=0;orthogonalLoop=1;jettySize=auto;html=1;exitX=1;exitY=0.5;exitDx=0;exitDy=0;entryX=0;entryY=0.5;entryDx=0;entryDy=0;endArrow=none;startFill=0;" edge="1" parent="1" source="fZSX2Tx-VuzL_oRfiSZg-6" target="fZSX2Tx-VuzL_oRfiSZg-12">
          <mxGeometry relative="1" as="geometry">
            <mxPoint x="410" y="190" as="sourcePoint" />
            <mxPoint x="530" y="310" as="targetPoint" />
          </mxGeometry>
        </mxCell>
        <mxCell id="fZSX2Tx-VuzL_oRfiSZg-34" style="rounded=0;orthogonalLoop=1;jettySize=auto;html=1;exitX=1;exitY=0.5;exitDx=0;exitDy=0;entryX=0;entryY=0.5;entryDx=0;entryDy=0;endArrow=none;startFill=0;" edge="1" parent="1" source="fZSX2Tx-VuzL_oRfiSZg-8" target="fZSX2Tx-VuzL_oRfiSZg-11">
          <mxGeometry relative="1" as="geometry">
            <mxPoint x="410" y="190" as="sourcePoint" />
            <mxPoint x="530" y="390" as="targetPoint" />
          </mxGeometry>
        </mxCell>
        <mxCell id="fZSX2Tx-VuzL_oRfiSZg-35" style="rounded=0;orthogonalLoop=1;jettySize=auto;html=1;exitX=1;exitY=0.5;exitDx=0;exitDy=0;entryX=0;entryY=0.5;entryDx=0;entryDy=0;endArrow=none;startFill=0;" edge="1" parent="1" source="fZSX2Tx-VuzL_oRfiSZg-8" target="fZSX2Tx-VuzL_oRfiSZg-12">
          <mxGeometry relative="1" as="geometry">
            <mxPoint x="410" y="270" as="sourcePoint" />
            <mxPoint x="530" y="310" as="targetPoint" />
          </mxGeometry>
        </mxCell>
        <mxCell id="fZSX2Tx-VuzL_oRfiSZg-36" style="rounded=0;orthogonalLoop=1;jettySize=auto;html=1;exitX=1;exitY=0.5;exitDx=0;exitDy=0;entryX=0;entryY=0.5;entryDx=0;entryDy=0;endArrow=none;startFill=0;" edge="1" parent="1" source="fZSX2Tx-VuzL_oRfiSZg-7" target="fZSX2Tx-VuzL_oRfiSZg-11">
          <mxGeometry relative="1" as="geometry">
            <mxPoint x="410" y="270" as="sourcePoint" />
            <mxPoint x="530" y="390" as="targetPoint" />
          </mxGeometry>
        </mxCell>
        <mxCell id="fZSX2Tx-VuzL_oRfiSZg-37" style="rounded=0;orthogonalLoop=1;jettySize=auto;html=1;exitX=1;exitY=0.5;exitDx=0;exitDy=0;entryX=0;entryY=0.5;entryDx=0;entryDy=0;endArrow=none;startFill=0;" edge="1" parent="1" source="fZSX2Tx-VuzL_oRfiSZg-10" target="fZSX2Tx-VuzL_oRfiSZg-12">
          <mxGeometry relative="1" as="geometry">
            <mxPoint x="410" y="350" as="sourcePoint" />
            <mxPoint x="530" y="310" as="targetPoint" />
          </mxGeometry>
        </mxCell>
        <mxCell id="fZSX2Tx-VuzL_oRfiSZg-38" style="rounded=0;orthogonalLoop=1;jettySize=auto;html=1;exitX=1;exitY=0.5;exitDx=0;exitDy=0;entryX=0;entryY=0.5;entryDx=0;entryDy=0;endArrow=none;startFill=0;" edge="1" parent="1" source="fZSX2Tx-VuzL_oRfiSZg-10" target="fZSX2Tx-VuzL_oRfiSZg-11">
          <mxGeometry relative="1" as="geometry">
            <mxPoint x="410" y="430" as="sourcePoint" />
            <mxPoint x="530" y="390" as="targetPoint" />
          </mxGeometry>
        </mxCell>
        <mxCell id="fZSX2Tx-VuzL_oRfiSZg-39" style="rounded=0;orthogonalLoop=1;jettySize=auto;html=1;exitX=1;exitY=0.5;exitDx=0;exitDy=0;entryX=0;entryY=0.5;entryDx=0;entryDy=0;endArrow=none;startFill=0;" edge="1" parent="1" source="fZSX2Tx-VuzL_oRfiSZg-7" target="fZSX2Tx-VuzL_oRfiSZg-12">
          <mxGeometry relative="1" as="geometry">
            <mxPoint x="410" y="350" as="sourcePoint" />
            <mxPoint x="530" y="310" as="targetPoint" />
          </mxGeometry>
        </mxCell>
        <mxCell id="fZSX2Tx-VuzL_oRfiSZg-40" style="rounded=0;orthogonalLoop=1;jettySize=auto;html=1;exitX=1;exitY=0.5;exitDx=0;exitDy=0;entryX=0;entryY=0.5;entryDx=0;entryDy=0;endArrow=none;startFill=0;" edge="1" parent="1" source="fZSX2Tx-VuzL_oRfiSZg-9" target="fZSX2Tx-VuzL_oRfiSZg-12">
          <mxGeometry relative="1" as="geometry">
            <mxPoint x="420" y="360" as="sourcePoint" />
            <mxPoint x="540" y="320" as="targetPoint" />
          </mxGeometry>
        </mxCell>
        <mxCell id="fZSX2Tx-VuzL_oRfiSZg-41" style="rounded=0;orthogonalLoop=1;jettySize=auto;html=1;exitX=1;exitY=0.5;exitDx=0;exitDy=0;entryX=0;entryY=0.5;entryDx=0;entryDy=0;endArrow=none;startFill=0;" edge="1" parent="1" source="fZSX2Tx-VuzL_oRfiSZg-9" target="fZSX2Tx-VuzL_oRfiSZg-11">
          <mxGeometry relative="1" as="geometry">
            <mxPoint x="411" y="506" as="sourcePoint" />
            <mxPoint x="530" y="390" as="targetPoint" />
          </mxGeometry>
        </mxCell>
        <mxCell id="fZSX2Tx-VuzL_oRfiSZg-42" value="&lt;font style=&quot;font-size: 20px;&quot;&gt;Shared Model 1&lt;/font&gt;" style="rounded=0;whiteSpace=wrap;html=1;rotation=-90;" vertex="1" parent="1">
          <mxGeometry x="-140" y="310" width="360" height="60" as="geometry" />
        </mxCell>
        <mxCell id="fZSX2Tx-VuzL_oRfiSZg-43" value="&lt;font style=&quot;font-size: 20px;&quot;&gt;Party 1&lt;/font&gt;" style="rounded=0;whiteSpace=wrap;html=1;rotation=-90;strokeColor=#D6B656;strokeWidth=2;" vertex="1" parent="1">
          <mxGeometry x="60" y="230" width="115" height="60" as="geometry" />
        </mxCell>
        <mxCell id="fZSX2Tx-VuzL_oRfiSZg-44" value="&lt;font style=&quot;font-size: 20px;&quot;&gt;Party 2&lt;/font&gt;" style="rounded=0;whiteSpace=wrap;html=1;rotation=-90;" vertex="1" parent="1">
          <mxGeometry x="60" y="390" width="115" height="60" as="geometry" />
        </mxCell>
        <mxCell id="fZSX2Tx-VuzL_oRfiSZg-45" value="" style="ellipse;whiteSpace=wrap;html=1;aspect=fixed;strokeColor=#4D4D4D;fillColor=#4D4D4D;" vertex="1" parent="1">
          <mxGeometry x="160" y="800" width="40" height="40" as="geometry" />
        </mxCell>
        <mxCell id="fZSX2Tx-VuzL_oRfiSZg-46" style="rounded=0;orthogonalLoop=1;jettySize=auto;html=1;exitX=1;exitY=0.5;exitDx=0;exitDy=0;entryX=0;entryY=0.5;entryDx=0;entryDy=0;endArrow=none;startFill=0;" edge="1" parent="1" source="fZSX2Tx-VuzL_oRfiSZg-47" target="fZSX2Tx-VuzL_oRfiSZg-50">
          <mxGeometry relative="1" as="geometry" />
        </mxCell>
        <mxCell id="fZSX2Tx-VuzL_oRfiSZg-47" value="" style="ellipse;whiteSpace=wrap;html=1;aspect=fixed;strokeColor=#3333FF;fillColor=#3333FF;" vertex="1" parent="1">
          <mxGeometry x="160" y="640" width="40" height="40" as="geometry" />
        </mxCell>
        <mxCell id="fZSX2Tx-VuzL_oRfiSZg-48" value="" style="ellipse;whiteSpace=wrap;html=1;aspect=fixed;strokeColor=#3333FF;fillColor=#3333FF;" vertex="1" parent="1">
          <mxGeometry x="160" y="720" width="40" height="40" as="geometry" />
        </mxCell>
        <mxCell id="fZSX2Tx-VuzL_oRfiSZg-49" value="" style="ellipse;whiteSpace=wrap;html=1;aspect=fixed;strokeColor=#4D4D4D;fillColor=#4D4D4D;" vertex="1" parent="1">
          <mxGeometry x="160" y="880" width="40" height="40" as="geometry" />
        </mxCell>
        <mxCell id="fZSX2Tx-VuzL_oRfiSZg-50" value="" style="ellipse;whiteSpace=wrap;html=1;aspect=fixed;strokeColor=#3333FF;fillColor=#3333FF;" vertex="1" parent="1">
          <mxGeometry x="360" y="600" width="40" height="40" as="geometry" />
        </mxCell>
        <mxCell id="fZSX2Tx-VuzL_oRfiSZg-51" value="" style="ellipse;whiteSpace=wrap;html=1;aspect=fixed;strokeColor=#3333FF;fillColor=#3333FF;" vertex="1" parent="1">
          <mxGeometry x="360" y="760" width="40" height="40" as="geometry" />
        </mxCell>
        <mxCell id="fZSX2Tx-VuzL_oRfiSZg-52" value="" style="ellipse;whiteSpace=wrap;html=1;aspect=fixed;strokeColor=#3333FF;fillColor=#3333FF;" vertex="1" parent="1">
          <mxGeometry x="360" y="680" width="40" height="40" as="geometry" />
        </mxCell>
        <mxCell id="fZSX2Tx-VuzL_oRfiSZg-53" value="" style="ellipse;whiteSpace=wrap;html=1;aspect=fixed;strokeColor=#4D4D4D;fillColor=#4D4D4D;" vertex="1" parent="1">
          <mxGeometry x="360" y="920" width="40" height="40" as="geometry" />
        </mxCell>
        <mxCell id="fZSX2Tx-VuzL_oRfiSZg-54" value="" style="ellipse;whiteSpace=wrap;html=1;aspect=fixed;strokeColor=#4D4D4D;fillColor=#4D4D4D;" vertex="1" parent="1">
          <mxGeometry x="360" y="840" width="40" height="40" as="geometry" />
        </mxCell>
        <mxCell id="fZSX2Tx-VuzL_oRfiSZg-55" value="" style="ellipse;whiteSpace=wrap;html=1;aspect=fixed;strokeColor=#CC0000;fillColor=#CC0000;" vertex="1" parent="1">
          <mxGeometry x="560" y="760" width="40" height="40" as="geometry" />
        </mxCell>
        <mxCell id="fZSX2Tx-VuzL_oRfiSZg-56" value="" style="ellipse;whiteSpace=wrap;html=1;aspect=fixed;strokeColor=#CC0000;fillColor=#CC0000;" vertex="1" parent="1">
          <mxGeometry x="560" y="840" width="40" height="40" as="geometry" />
        </mxCell>
        <mxCell id="fZSX2Tx-VuzL_oRfiSZg-57" style="rounded=0;orthogonalLoop=1;jettySize=auto;html=1;exitX=1;exitY=0.5;exitDx=0;exitDy=0;entryX=0;entryY=0.5;entryDx=0;entryDy=0;endArrow=none;startFill=0;" edge="1" parent="1" source="fZSX2Tx-VuzL_oRfiSZg-47" target="fZSX2Tx-VuzL_oRfiSZg-52">
          <mxGeometry relative="1" as="geometry">
            <mxPoint x="210" y="670" as="sourcePoint" />
            <mxPoint x="330" y="630" as="targetPoint" />
          </mxGeometry>
        </mxCell>
        <mxCell id="fZSX2Tx-VuzL_oRfiSZg-58" style="rounded=0;orthogonalLoop=1;jettySize=auto;html=1;exitX=1;exitY=0.5;exitDx=0;exitDy=0;entryX=0;entryY=0.5;entryDx=0;entryDy=0;endArrow=none;startFill=0;" edge="1" parent="1" source="fZSX2Tx-VuzL_oRfiSZg-47" target="fZSX2Tx-VuzL_oRfiSZg-51">
          <mxGeometry relative="1" as="geometry">
            <mxPoint x="210" y="670" as="sourcePoint" />
            <mxPoint x="330" y="710" as="targetPoint" />
          </mxGeometry>
        </mxCell>
        <mxCell id="fZSX2Tx-VuzL_oRfiSZg-59" style="rounded=0;orthogonalLoop=1;jettySize=auto;html=1;exitX=1;exitY=0.5;exitDx=0;exitDy=0;endArrow=none;startFill=0;entryX=0;entryY=0.5;entryDx=0;entryDy=0;" edge="1" parent="1" source="fZSX2Tx-VuzL_oRfiSZg-48" target="fZSX2Tx-VuzL_oRfiSZg-50">
          <mxGeometry relative="1" as="geometry">
            <mxPoint x="210" y="670" as="sourcePoint" />
            <mxPoint x="320" y="620" as="targetPoint" />
          </mxGeometry>
        </mxCell>
        <mxCell id="fZSX2Tx-VuzL_oRfiSZg-60" style="rounded=0;orthogonalLoop=1;jettySize=auto;html=1;exitX=1;exitY=0.5;exitDx=0;exitDy=0;entryX=0;entryY=0.5;entryDx=0;entryDy=0;endArrow=none;startFill=0;" edge="1" parent="1" source="fZSX2Tx-VuzL_oRfiSZg-47" target="fZSX2Tx-VuzL_oRfiSZg-53">
          <mxGeometry relative="1" as="geometry">
            <mxPoint x="220" y="680" as="sourcePoint" />
            <mxPoint x="340" y="800" as="targetPoint" />
          </mxGeometry>
        </mxCell>
        <mxCell id="fZSX2Tx-VuzL_oRfiSZg-61" style="rounded=0;orthogonalLoop=1;jettySize=auto;html=1;exitX=1;exitY=0.5;exitDx=0;exitDy=0;entryX=0;entryY=0.5;entryDx=0;entryDy=0;endArrow=none;startFill=0;" edge="1" parent="1" source="fZSX2Tx-VuzL_oRfiSZg-47" target="fZSX2Tx-VuzL_oRfiSZg-54">
          <mxGeometry relative="1" as="geometry">
            <mxPoint x="230" y="690" as="sourcePoint" />
            <mxPoint x="350" y="810" as="targetPoint" />
          </mxGeometry>
        </mxCell>
        <mxCell id="fZSX2Tx-VuzL_oRfiSZg-62" style="rounded=0;orthogonalLoop=1;jettySize=auto;html=1;exitX=0;exitY=0.5;exitDx=0;exitDy=0;entryX=1;entryY=0.5;entryDx=0;entryDy=0;endArrow=none;startFill=0;" edge="1" parent="1" source="fZSX2Tx-VuzL_oRfiSZg-52" target="fZSX2Tx-VuzL_oRfiSZg-45">
          <mxGeometry relative="1" as="geometry">
            <mxPoint x="240" y="700" as="sourcePoint" />
            <mxPoint x="360" y="820" as="targetPoint" />
          </mxGeometry>
        </mxCell>
        <mxCell id="fZSX2Tx-VuzL_oRfiSZg-63" style="rounded=0;orthogonalLoop=1;jettySize=auto;html=1;exitX=0;exitY=0.5;exitDx=0;exitDy=0;entryX=1;entryY=0.5;entryDx=0;entryDy=0;endArrow=none;startFill=0;" edge="1" parent="1" source="fZSX2Tx-VuzL_oRfiSZg-50" target="fZSX2Tx-VuzL_oRfiSZg-49">
          <mxGeometry relative="1" as="geometry">
            <mxPoint x="250" y="710" as="sourcePoint" />
            <mxPoint x="370" y="830" as="targetPoint" />
          </mxGeometry>
        </mxCell>
        <mxCell id="fZSX2Tx-VuzL_oRfiSZg-64" style="rounded=0;orthogonalLoop=1;jettySize=auto;html=1;exitX=0;exitY=0.5;exitDx=0;exitDy=0;entryX=1;entryY=0.5;entryDx=0;entryDy=0;endArrow=none;startFill=0;" edge="1" parent="1" source="fZSX2Tx-VuzL_oRfiSZg-52" target="fZSX2Tx-VuzL_oRfiSZg-49">
          <mxGeometry relative="1" as="geometry">
            <mxPoint x="330" y="630" as="sourcePoint" />
            <mxPoint x="210" y="910" as="targetPoint" />
          </mxGeometry>
        </mxCell>
        <mxCell id="fZSX2Tx-VuzL_oRfiSZg-65" style="rounded=0;orthogonalLoop=1;jettySize=auto;html=1;entryX=1;entryY=0.5;entryDx=0;entryDy=0;endArrow=none;startFill=0;exitX=0;exitY=0.5;exitDx=0;exitDy=0;" edge="1" parent="1" source="fZSX2Tx-VuzL_oRfiSZg-53" target="fZSX2Tx-VuzL_oRfiSZg-49">
          <mxGeometry relative="1" as="geometry">
            <mxPoint x="320" y="940" as="sourcePoint" />
            <mxPoint x="210" y="910" as="targetPoint" />
          </mxGeometry>
        </mxCell>
        <mxCell id="fZSX2Tx-VuzL_oRfiSZg-66" style="rounded=0;orthogonalLoop=1;jettySize=auto;html=1;exitX=0;exitY=0.5;exitDx=0;exitDy=0;endArrow=none;startFill=0;entryX=1;entryY=0.5;entryDx=0;entryDy=0;" edge="1" parent="1" source="fZSX2Tx-VuzL_oRfiSZg-51" target="fZSX2Tx-VuzL_oRfiSZg-49">
          <mxGeometry relative="1" as="geometry">
            <mxPoint x="340" y="720" as="sourcePoint" />
            <mxPoint x="200" y="900" as="targetPoint" />
          </mxGeometry>
        </mxCell>
        <mxCell id="fZSX2Tx-VuzL_oRfiSZg-67" style="rounded=0;orthogonalLoop=1;jettySize=auto;html=1;exitX=0;exitY=0.5;exitDx=0;exitDy=0;entryX=1;entryY=0.5;entryDx=0;entryDy=0;endArrow=none;startFill=0;" edge="1" parent="1" source="fZSX2Tx-VuzL_oRfiSZg-51" target="fZSX2Tx-VuzL_oRfiSZg-45">
          <mxGeometry relative="1" as="geometry">
            <mxPoint x="330" y="710" as="sourcePoint" />
            <mxPoint x="210" y="830" as="targetPoint" />
          </mxGeometry>
        </mxCell>
        <mxCell id="fZSX2Tx-VuzL_oRfiSZg-68" style="rounded=0;orthogonalLoop=1;jettySize=auto;html=1;exitX=0;exitY=0.5;exitDx=0;exitDy=0;entryX=1;entryY=0.5;entryDx=0;entryDy=0;endArrow=none;startFill=0;" edge="1" parent="1" source="fZSX2Tx-VuzL_oRfiSZg-50" target="fZSX2Tx-VuzL_oRfiSZg-45">
          <mxGeometry relative="1" as="geometry">
            <mxPoint x="340" y="720" as="sourcePoint" />
            <mxPoint x="220" y="840" as="targetPoint" />
          </mxGeometry>
        </mxCell>
        <mxCell id="fZSX2Tx-VuzL_oRfiSZg-69" style="rounded=0;orthogonalLoop=1;jettySize=auto;html=1;exitX=1;exitY=0.5;exitDx=0;exitDy=0;endArrow=none;startFill=0;entryX=0;entryY=0.5;entryDx=0;entryDy=0;" edge="1" parent="1" source="fZSX2Tx-VuzL_oRfiSZg-48" target="fZSX2Tx-VuzL_oRfiSZg-52">
          <mxGeometry relative="1" as="geometry">
            <mxPoint x="210" y="750" as="sourcePoint" />
            <mxPoint x="330" y="630" as="targetPoint" />
          </mxGeometry>
        </mxCell>
        <mxCell id="fZSX2Tx-VuzL_oRfiSZg-70" style="rounded=0;orthogonalLoop=1;jettySize=auto;html=1;exitX=1;exitY=0.5;exitDx=0;exitDy=0;endArrow=none;startFill=0;entryX=0;entryY=0.5;entryDx=0;entryDy=0;" edge="1" parent="1" source="fZSX2Tx-VuzL_oRfiSZg-48" target="fZSX2Tx-VuzL_oRfiSZg-51">
          <mxGeometry relative="1" as="geometry">
            <mxPoint x="210" y="750" as="sourcePoint" />
            <mxPoint x="330" y="710" as="targetPoint" />
          </mxGeometry>
        </mxCell>
        <mxCell id="fZSX2Tx-VuzL_oRfiSZg-71" style="rounded=0;orthogonalLoop=1;jettySize=auto;html=1;exitX=1;exitY=0.5;exitDx=0;exitDy=0;endArrow=none;startFill=0;entryX=0;entryY=0.5;entryDx=0;entryDy=0;" edge="1" parent="1" source="fZSX2Tx-VuzL_oRfiSZg-48" target="fZSX2Tx-VuzL_oRfiSZg-54">
          <mxGeometry relative="1" as="geometry">
            <mxPoint x="210" y="750" as="sourcePoint" />
            <mxPoint x="330" y="790" as="targetPoint" />
          </mxGeometry>
        </mxCell>
        <mxCell id="fZSX2Tx-VuzL_oRfiSZg-72" style="rounded=0;orthogonalLoop=1;jettySize=auto;html=1;exitX=1;exitY=0.5;exitDx=0;exitDy=0;endArrow=none;startFill=0;entryX=0;entryY=0.5;entryDx=0;entryDy=0;" edge="1" parent="1" source="fZSX2Tx-VuzL_oRfiSZg-48" target="fZSX2Tx-VuzL_oRfiSZg-53">
          <mxGeometry relative="1" as="geometry">
            <mxPoint x="210" y="750" as="sourcePoint" />
            <mxPoint x="330" y="870" as="targetPoint" />
          </mxGeometry>
        </mxCell>
        <mxCell id="fZSX2Tx-VuzL_oRfiSZg-73" style="rounded=0;orthogonalLoop=1;jettySize=auto;html=1;endArrow=none;startFill=0;entryX=1;entryY=0.5;entryDx=0;entryDy=0;exitX=0;exitY=0.5;exitDx=0;exitDy=0;" edge="1" parent="1" source="fZSX2Tx-VuzL_oRfiSZg-54" target="fZSX2Tx-VuzL_oRfiSZg-49">
          <mxGeometry relative="1" as="geometry">
            <mxPoint x="330" y="950" as="sourcePoint" />
            <mxPoint x="200" y="900" as="targetPoint" />
          </mxGeometry>
        </mxCell>
        <mxCell id="fZSX2Tx-VuzL_oRfiSZg-74" style="rounded=0;orthogonalLoop=1;jettySize=auto;html=1;exitX=0;exitY=0.5;exitDx=0;exitDy=0;entryX=1;entryY=0.5;entryDx=0;entryDy=0;endArrow=none;startFill=0;" edge="1" parent="1" source="fZSX2Tx-VuzL_oRfiSZg-54" target="fZSX2Tx-VuzL_oRfiSZg-45">
          <mxGeometry relative="1" as="geometry">
            <mxPoint x="330" y="790" as="sourcePoint" />
            <mxPoint x="210" y="830" as="targetPoint" />
          </mxGeometry>
        </mxCell>
        <mxCell id="fZSX2Tx-VuzL_oRfiSZg-75" style="rounded=0;orthogonalLoop=1;jettySize=auto;html=1;exitX=0;exitY=0.5;exitDx=0;exitDy=0;entryX=1;entryY=0.5;entryDx=0;entryDy=0;endArrow=none;startFill=0;" edge="1" parent="1" source="fZSX2Tx-VuzL_oRfiSZg-53" target="fZSX2Tx-VuzL_oRfiSZg-45">
          <mxGeometry relative="1" as="geometry">
            <mxPoint x="330" y="870" as="sourcePoint" />
            <mxPoint x="210" y="830" as="targetPoint" />
          </mxGeometry>
        </mxCell>
        <mxCell id="fZSX2Tx-VuzL_oRfiSZg-76" style="rounded=0;orthogonalLoop=1;jettySize=auto;html=1;exitX=1;exitY=0.5;exitDx=0;exitDy=0;entryX=0;entryY=0.5;entryDx=0;entryDy=0;endArrow=none;startFill=0;" edge="1" parent="1" source="fZSX2Tx-VuzL_oRfiSZg-50" target="fZSX2Tx-VuzL_oRfiSZg-55">
          <mxGeometry relative="1" as="geometry">
            <mxPoint x="490" y="620" as="sourcePoint" />
            <mxPoint x="610" y="580" as="targetPoint" />
          </mxGeometry>
        </mxCell>
        <mxCell id="fZSX2Tx-VuzL_oRfiSZg-77" style="rounded=0;orthogonalLoop=1;jettySize=auto;html=1;exitX=1;exitY=0.5;exitDx=0;exitDy=0;entryX=0;entryY=0.5;entryDx=0;entryDy=0;endArrow=none;startFill=0;" edge="1" parent="1" source="fZSX2Tx-VuzL_oRfiSZg-50" target="fZSX2Tx-VuzL_oRfiSZg-56">
          <mxGeometry relative="1" as="geometry">
            <mxPoint x="410" y="630" as="sourcePoint" />
            <mxPoint x="530" y="750" as="targetPoint" />
          </mxGeometry>
        </mxCell>
        <mxCell id="fZSX2Tx-VuzL_oRfiSZg-78" style="rounded=0;orthogonalLoop=1;jettySize=auto;html=1;exitX=1;exitY=0.5;exitDx=0;exitDy=0;entryX=0;entryY=0.5;entryDx=0;entryDy=0;endArrow=none;startFill=0;" edge="1" parent="1" source="fZSX2Tx-VuzL_oRfiSZg-52" target="fZSX2Tx-VuzL_oRfiSZg-55">
          <mxGeometry relative="1" as="geometry">
            <mxPoint x="410" y="630" as="sourcePoint" />
            <mxPoint x="530" y="830" as="targetPoint" />
          </mxGeometry>
        </mxCell>
        <mxCell id="fZSX2Tx-VuzL_oRfiSZg-79" style="rounded=0;orthogonalLoop=1;jettySize=auto;html=1;exitX=1;exitY=0.5;exitDx=0;exitDy=0;entryX=0;entryY=0.5;entryDx=0;entryDy=0;endArrow=none;startFill=0;" edge="1" parent="1" source="fZSX2Tx-VuzL_oRfiSZg-52" target="fZSX2Tx-VuzL_oRfiSZg-56">
          <mxGeometry relative="1" as="geometry">
            <mxPoint x="410" y="710" as="sourcePoint" />
            <mxPoint x="530" y="750" as="targetPoint" />
          </mxGeometry>
        </mxCell>
        <mxCell id="fZSX2Tx-VuzL_oRfiSZg-80" style="rounded=0;orthogonalLoop=1;jettySize=auto;html=1;exitX=1;exitY=0.5;exitDx=0;exitDy=0;entryX=0;entryY=0.5;entryDx=0;entryDy=0;endArrow=none;startFill=0;" edge="1" parent="1" source="fZSX2Tx-VuzL_oRfiSZg-51" target="fZSX2Tx-VuzL_oRfiSZg-55">
          <mxGeometry relative="1" as="geometry">
            <mxPoint x="410" y="710" as="sourcePoint" />
            <mxPoint x="530" y="830" as="targetPoint" />
          </mxGeometry>
        </mxCell>
        <mxCell id="fZSX2Tx-VuzL_oRfiSZg-81" style="rounded=0;orthogonalLoop=1;jettySize=auto;html=1;exitX=1;exitY=0.5;exitDx=0;exitDy=0;entryX=0;entryY=0.5;entryDx=0;entryDy=0;endArrow=none;startFill=0;" edge="1" parent="1" source="fZSX2Tx-VuzL_oRfiSZg-54" target="fZSX2Tx-VuzL_oRfiSZg-56">
          <mxGeometry relative="1" as="geometry">
            <mxPoint x="410" y="790" as="sourcePoint" />
            <mxPoint x="530" y="750" as="targetPoint" />
          </mxGeometry>
        </mxCell>
        <mxCell id="fZSX2Tx-VuzL_oRfiSZg-82" style="rounded=0;orthogonalLoop=1;jettySize=auto;html=1;exitX=1;exitY=0.5;exitDx=0;exitDy=0;entryX=0;entryY=0.5;entryDx=0;entryDy=0;endArrow=none;startFill=0;" edge="1" parent="1" source="fZSX2Tx-VuzL_oRfiSZg-54" target="fZSX2Tx-VuzL_oRfiSZg-55">
          <mxGeometry relative="1" as="geometry">
            <mxPoint x="410" y="870" as="sourcePoint" />
            <mxPoint x="530" y="830" as="targetPoint" />
          </mxGeometry>
        </mxCell>
        <mxCell id="fZSX2Tx-VuzL_oRfiSZg-83" style="rounded=0;orthogonalLoop=1;jettySize=auto;html=1;exitX=1;exitY=0.5;exitDx=0;exitDy=0;entryX=0;entryY=0.5;entryDx=0;entryDy=0;endArrow=none;startFill=0;" edge="1" parent="1" source="fZSX2Tx-VuzL_oRfiSZg-51" target="fZSX2Tx-VuzL_oRfiSZg-56">
          <mxGeometry relative="1" as="geometry">
            <mxPoint x="410" y="790" as="sourcePoint" />
            <mxPoint x="530" y="750" as="targetPoint" />
          </mxGeometry>
        </mxCell>
        <mxCell id="fZSX2Tx-VuzL_oRfiSZg-84" style="rounded=0;orthogonalLoop=1;jettySize=auto;html=1;exitX=1;exitY=0.5;exitDx=0;exitDy=0;entryX=0;entryY=0.5;entryDx=0;entryDy=0;endArrow=none;startFill=0;" edge="1" parent="1" source="fZSX2Tx-VuzL_oRfiSZg-53" target="fZSX2Tx-VuzL_oRfiSZg-56">
          <mxGeometry relative="1" as="geometry">
            <mxPoint x="420" y="800" as="sourcePoint" />
            <mxPoint x="540" y="760" as="targetPoint" />
          </mxGeometry>
        </mxCell>
        <mxCell id="fZSX2Tx-VuzL_oRfiSZg-85" style="rounded=0;orthogonalLoop=1;jettySize=auto;html=1;exitX=1;exitY=0.5;exitDx=0;exitDy=0;entryX=0;entryY=0.5;entryDx=0;entryDy=0;endArrow=none;startFill=0;" edge="1" parent="1" source="fZSX2Tx-VuzL_oRfiSZg-53" target="fZSX2Tx-VuzL_oRfiSZg-55">
          <mxGeometry relative="1" as="geometry">
            <mxPoint x="411" y="946" as="sourcePoint" />
            <mxPoint x="530" y="830" as="targetPoint" />
          </mxGeometry>
        </mxCell>
        <mxCell id="fZSX2Tx-VuzL_oRfiSZg-86" value="&lt;font style=&quot;font-size: 20px;&quot;&gt;Shared Model 2&lt;/font&gt;" style="rounded=0;whiteSpace=wrap;html=1;rotation=-90;" vertex="1" parent="1">
          <mxGeometry x="-180" y="790" width="440" height="60" as="geometry" />
        </mxCell>
        <mxCell id="fZSX2Tx-VuzL_oRfiSZg-87" value="&lt;font style=&quot;font-size: 20px;&quot;&gt;Party 1&lt;/font&gt;" style="rounded=0;whiteSpace=wrap;html=1;rotation=-90;" vertex="1" parent="1">
          <mxGeometry x="60" y="670" width="115" height="60" as="geometry" />
        </mxCell>
        <mxCell id="fZSX2Tx-VuzL_oRfiSZg-88" value="&lt;font style=&quot;font-size: 20px;&quot;&gt;Party 3&lt;/font&gt;" style="rounded=0;whiteSpace=wrap;html=1;rotation=-90;" vertex="1" parent="1">
          <mxGeometry x="20" y="870" width="195" height="60" as="geometry" />
        </mxCell>
        <mxCell id="fZSX2Tx-VuzL_oRfiSZg-89" value="" style="ellipse;whiteSpace=wrap;html=1;aspect=fixed;strokeColor=#4D4D4D;fillColor=#4D4D4D;" vertex="1" parent="1">
          <mxGeometry x="360" y="1000" width="40" height="40" as="geometry" />
        </mxCell>
        <mxCell id="fZSX2Tx-VuzL_oRfiSZg-90" value="" style="ellipse;whiteSpace=wrap;html=1;aspect=fixed;strokeColor=#4D4D4D;fillColor=#4D4D4D;" vertex="1" parent="1">
          <mxGeometry x="160" y="960" width="40" height="40" as="geometry" />
        </mxCell>
        <mxCell id="fZSX2Tx-VuzL_oRfiSZg-91" style="rounded=0;orthogonalLoop=1;jettySize=auto;html=1;endArrow=none;startFill=0;entryX=1;entryY=0.5;entryDx=0;entryDy=0;exitX=0;exitY=0.5;exitDx=0;exitDy=0;" edge="1" parent="1" source="fZSX2Tx-VuzL_oRfiSZg-50" target="fZSX2Tx-VuzL_oRfiSZg-90">
          <mxGeometry relative="1" as="geometry">
            <mxPoint x="330" y="870" as="sourcePoint" />
            <mxPoint x="210" y="910" as="targetPoint" />
          </mxGeometry>
        </mxCell>
        <mxCell id="fZSX2Tx-VuzL_oRfiSZg-92" style="rounded=0;orthogonalLoop=1;jettySize=auto;html=1;endArrow=none;startFill=0;entryX=1;entryY=0.5;entryDx=0;entryDy=0;exitX=0;exitY=0.5;exitDx=0;exitDy=0;" edge="1" parent="1" source="fZSX2Tx-VuzL_oRfiSZg-52" target="fZSX2Tx-VuzL_oRfiSZg-90">
          <mxGeometry relative="1" as="geometry">
            <mxPoint x="330" y="630" as="sourcePoint" />
            <mxPoint x="210" y="990" as="targetPoint" />
          </mxGeometry>
        </mxCell>
        <mxCell id="fZSX2Tx-VuzL_oRfiSZg-93" style="rounded=0;orthogonalLoop=1;jettySize=auto;html=1;endArrow=none;startFill=0;entryX=1;entryY=0.5;entryDx=0;entryDy=0;exitX=0;exitY=0.5;exitDx=0;exitDy=0;" edge="1" parent="1" source="fZSX2Tx-VuzL_oRfiSZg-51" target="fZSX2Tx-VuzL_oRfiSZg-90">
          <mxGeometry relative="1" as="geometry">
            <mxPoint x="330" y="710" as="sourcePoint" />
            <mxPoint x="210" y="990" as="targetPoint" />
          </mxGeometry>
        </mxCell>
        <mxCell id="fZSX2Tx-VuzL_oRfiSZg-94" style="rounded=0;orthogonalLoop=1;jettySize=auto;html=1;endArrow=none;startFill=0;exitX=0;exitY=0.5;exitDx=0;exitDy=0;" edge="1" parent="1" source="fZSX2Tx-VuzL_oRfiSZg-54">
          <mxGeometry relative="1" as="geometry">
            <mxPoint x="330" y="790" as="sourcePoint" />
            <mxPoint x="200" y="980" as="targetPoint" />
          </mxGeometry>
        </mxCell>
        <mxCell id="fZSX2Tx-VuzL_oRfiSZg-95" style="rounded=0;orthogonalLoop=1;jettySize=auto;html=1;endArrow=none;startFill=0;exitX=0;exitY=0.5;exitDx=0;exitDy=0;entryX=1;entryY=0.5;entryDx=0;entryDy=0;" edge="1" parent="1" source="fZSX2Tx-VuzL_oRfiSZg-53" target="fZSX2Tx-VuzL_oRfiSZg-90">
          <mxGeometry relative="1" as="geometry">
            <mxPoint x="330" y="870" as="sourcePoint" />
            <mxPoint x="210" y="990" as="targetPoint" />
          </mxGeometry>
        </mxCell>
        <mxCell id="fZSX2Tx-VuzL_oRfiSZg-96" style="rounded=0;orthogonalLoop=1;jettySize=auto;html=1;endArrow=none;startFill=0;exitX=0;exitY=0.5;exitDx=0;exitDy=0;entryX=1;entryY=0.5;entryDx=0;entryDy=0;" edge="1" parent="1" source="fZSX2Tx-VuzL_oRfiSZg-89" target="fZSX2Tx-VuzL_oRfiSZg-90">
          <mxGeometry relative="1" as="geometry">
            <mxPoint x="330" y="950" as="sourcePoint" />
            <mxPoint x="210" y="990" as="targetPoint" />
          </mxGeometry>
        </mxCell>
        <mxCell id="fZSX2Tx-VuzL_oRfiSZg-97" style="rounded=0;orthogonalLoop=1;jettySize=auto;html=1;endArrow=none;startFill=0;exitX=0;exitY=0.5;exitDx=0;exitDy=0;entryX=1;entryY=0.5;entryDx=0;entryDy=0;" edge="1" parent="1" source="fZSX2Tx-VuzL_oRfiSZg-89" target="fZSX2Tx-VuzL_oRfiSZg-49">
          <mxGeometry relative="1" as="geometry">
            <mxPoint x="330" y="1030" as="sourcePoint" />
            <mxPoint x="210" y="990" as="targetPoint" />
          </mxGeometry>
        </mxCell>
        <mxCell id="fZSX2Tx-VuzL_oRfiSZg-98" style="rounded=0;orthogonalLoop=1;jettySize=auto;html=1;endArrow=none;startFill=0;exitX=0;exitY=0.5;exitDx=0;exitDy=0;entryX=1;entryY=0.5;entryDx=0;entryDy=0;" edge="1" parent="1" source="fZSX2Tx-VuzL_oRfiSZg-89" target="fZSX2Tx-VuzL_oRfiSZg-45">
          <mxGeometry relative="1" as="geometry">
            <mxPoint x="330" y="1030" as="sourcePoint" />
            <mxPoint x="210" y="910" as="targetPoint" />
          </mxGeometry>
        </mxCell>
        <mxCell id="fZSX2Tx-VuzL_oRfiSZg-99" style="rounded=0;orthogonalLoop=1;jettySize=auto;html=1;endArrow=none;startFill=0;exitX=0;exitY=0.5;exitDx=0;exitDy=0;entryX=1;entryY=0.5;entryDx=0;entryDy=0;" edge="1" parent="1" source="fZSX2Tx-VuzL_oRfiSZg-89" target="fZSX2Tx-VuzL_oRfiSZg-48">
          <mxGeometry relative="1" as="geometry">
            <mxPoint x="330" y="1030" as="sourcePoint" />
            <mxPoint x="210" y="830" as="targetPoint" />
          </mxGeometry>
        </mxCell>
        <mxCell id="fZSX2Tx-VuzL_oRfiSZg-100" style="rounded=0;orthogonalLoop=1;jettySize=auto;html=1;endArrow=none;startFill=0;exitX=0;exitY=0.5;exitDx=0;exitDy=0;entryX=1;entryY=0.5;entryDx=0;entryDy=0;" edge="1" parent="1" source="fZSX2Tx-VuzL_oRfiSZg-89" target="fZSX2Tx-VuzL_oRfiSZg-47">
          <mxGeometry relative="1" as="geometry">
            <mxPoint x="330" y="1030" as="sourcePoint" />
            <mxPoint x="210" y="750" as="targetPoint" />
          </mxGeometry>
        </mxCell>
        <mxCell id="fZSX2Tx-VuzL_oRfiSZg-101" style="rounded=0;orthogonalLoop=1;jettySize=auto;html=1;exitX=1;exitY=0.5;exitDx=0;exitDy=0;entryX=0;entryY=0.5;entryDx=0;entryDy=0;endArrow=none;startFill=0;" edge="1" parent="1" source="fZSX2Tx-VuzL_oRfiSZg-89" target="fZSX2Tx-VuzL_oRfiSZg-56">
          <mxGeometry relative="1" as="geometry">
            <mxPoint x="399.9999999999998" y="1020" as="sourcePoint" />
            <mxPoint x="530" y="830" as="targetPoint" />
          </mxGeometry>
        </mxCell>
        <mxCell id="fZSX2Tx-VuzL_oRfiSZg-102" style="rounded=0;orthogonalLoop=1;jettySize=auto;html=1;exitX=1;exitY=0.5;exitDx=0;exitDy=0;entryX=0;entryY=0.5;entryDx=0;entryDy=0;endArrow=none;startFill=0;" edge="1" parent="1" source="fZSX2Tx-VuzL_oRfiSZg-89" target="fZSX2Tx-VuzL_oRfiSZg-55">
          <mxGeometry relative="1" as="geometry">
            <mxPoint x="399.9999999999998" y="1020" as="sourcePoint" />
            <mxPoint x="530" y="830" as="targetPoint" />
          </mxGeometry>
        </mxCell>
        <mxCell id="fZSX2Tx-VuzL_oRfiSZg-103" value="" style="ellipse;whiteSpace=wrap;html=1;aspect=fixed;strokeColor=#99CCFF;fillColor=#99CCFF;" vertex="1" parent="1">
          <mxGeometry x="881" y="759" width="40" height="40" as="geometry" />
        </mxCell>
        <mxCell id="fZSX2Tx-VuzL_oRfiSZg-104" value="" style="ellipse;whiteSpace=wrap;html=1;aspect=fixed;strokeColor=#99CCFF;fillColor=#99CCFF;" vertex="1" parent="1">
          <mxGeometry x="881" y="839" width="40" height="40" as="geometry" />
        </mxCell>
        <mxCell id="fZSX2Tx-VuzL_oRfiSZg-105" value="" style="ellipse;whiteSpace=wrap;html=1;aspect=fixed;strokeColor=#99CCFF;fillColor=#99CCFF;" vertex="1" parent="1">
          <mxGeometry x="1041" y="679" width="40" height="40" as="geometry" />
        </mxCell>
        <mxCell id="fZSX2Tx-VuzL_oRfiSZg-106" value="" style="ellipse;whiteSpace=wrap;html=1;aspect=fixed;strokeColor=#99CCFF;fillColor=#99CCFF;" vertex="1" parent="1">
          <mxGeometry x="1041" y="919" width="40" height="40" as="geometry" />
        </mxCell>
        <mxCell id="fZSX2Tx-VuzL_oRfiSZg-107" value="" style="ellipse;whiteSpace=wrap;html=1;aspect=fixed;strokeColor=#99CCFF;fillColor=#99CCFF;" vertex="1" parent="1">
          <mxGeometry x="1041" y="839" width="40" height="40" as="geometry" />
        </mxCell>
        <mxCell id="fZSX2Tx-VuzL_oRfiSZg-108" value="" style="ellipse;whiteSpace=wrap;html=1;aspect=fixed;strokeColor=#99CCFF;fillColor=#99CCFF;" vertex="1" parent="1">
          <mxGeometry x="1041" y="759" width="40" height="40" as="geometry" />
        </mxCell>
        <mxCell id="fZSX2Tx-VuzL_oRfiSZg-109" value="" style="ellipse;whiteSpace=wrap;html=1;aspect=fixed;strokeColor=#FF3333;fillColor=#FF3333;" vertex="1" parent="1">
          <mxGeometry x="1201" y="759" width="40" height="40" as="geometry" />
        </mxCell>
        <mxCell id="fZSX2Tx-VuzL_oRfiSZg-110" value="" style="ellipse;whiteSpace=wrap;html=1;aspect=fixed;strokeColor=#FF3333;fillColor=#FF3333;" vertex="1" parent="1">
          <mxGeometry x="1201" y="839" width="40" height="40" as="geometry" />
        </mxCell>
        <mxCell id="fZSX2Tx-VuzL_oRfiSZg-111" style="rounded=0;orthogonalLoop=1;jettySize=auto;html=1;exitX=1;exitY=0.5;exitDx=0;exitDy=0;entryX=0;entryY=0.5;entryDx=0;entryDy=0;endArrow=none;startFill=0;" edge="1" parent="1" source="fZSX2Tx-VuzL_oRfiSZg-103" target="fZSX2Tx-VuzL_oRfiSZg-105">
          <mxGeometry relative="1" as="geometry">
            <mxPoint x="951" y="833" as="sourcePoint" />
            <mxPoint x="1071" y="993" as="targetPoint" />
          </mxGeometry>
        </mxCell>
        <mxCell id="fZSX2Tx-VuzL_oRfiSZg-112" style="rounded=0;orthogonalLoop=1;jettySize=auto;html=1;exitX=1;exitY=0.5;exitDx=0;exitDy=0;entryX=0;entryY=0.5;entryDx=0;entryDy=0;endArrow=none;startFill=0;" edge="1" parent="1" source="fZSX2Tx-VuzL_oRfiSZg-104" target="fZSX2Tx-VuzL_oRfiSZg-105">
          <mxGeometry relative="1" as="geometry">
            <mxPoint x="931" y="789" as="sourcePoint" />
            <mxPoint x="1051" y="713" as="targetPoint" />
          </mxGeometry>
        </mxCell>
        <mxCell id="fZSX2Tx-VuzL_oRfiSZg-113" style="rounded=0;orthogonalLoop=1;jettySize=auto;html=1;exitX=1;exitY=0.5;exitDx=0;exitDy=0;entryX=0;entryY=0.5;entryDx=0;entryDy=0;endArrow=none;startFill=0;" edge="1" parent="1" source="fZSX2Tx-VuzL_oRfiSZg-103" target="fZSX2Tx-VuzL_oRfiSZg-108">
          <mxGeometry relative="1" as="geometry">
            <mxPoint x="931" y="869" as="sourcePoint" />
            <mxPoint x="1051" y="713" as="targetPoint" />
          </mxGeometry>
        </mxCell>
        <mxCell id="fZSX2Tx-VuzL_oRfiSZg-114" style="rounded=0;orthogonalLoop=1;jettySize=auto;html=1;exitX=1;exitY=0.5;exitDx=0;exitDy=0;entryX=0;entryY=0.5;entryDx=0;entryDy=0;endArrow=none;startFill=0;" edge="1" parent="1" source="fZSX2Tx-VuzL_oRfiSZg-104" target="fZSX2Tx-VuzL_oRfiSZg-108">
          <mxGeometry relative="1" as="geometry">
            <mxPoint x="931" y="789" as="sourcePoint" />
            <mxPoint x="1051" y="793" as="targetPoint" />
          </mxGeometry>
        </mxCell>
        <mxCell id="fZSX2Tx-VuzL_oRfiSZg-115" style="rounded=0;orthogonalLoop=1;jettySize=auto;html=1;exitX=1;exitY=0.5;exitDx=0;exitDy=0;entryX=0;entryY=0.5;entryDx=0;entryDy=0;endArrow=none;startFill=0;" edge="1" parent="1" source="fZSX2Tx-VuzL_oRfiSZg-103" target="fZSX2Tx-VuzL_oRfiSZg-107">
          <mxGeometry relative="1" as="geometry">
            <mxPoint x="941" y="799" as="sourcePoint" />
            <mxPoint x="1061" y="803" as="targetPoint" />
          </mxGeometry>
        </mxCell>
        <mxCell id="fZSX2Tx-VuzL_oRfiSZg-116" style="rounded=0;orthogonalLoop=1;jettySize=auto;html=1;exitX=1;exitY=0.5;exitDx=0;exitDy=0;entryX=0;entryY=0.5;entryDx=0;entryDy=0;endArrow=none;startFill=0;" edge="1" parent="1" source="fZSX2Tx-VuzL_oRfiSZg-103" target="fZSX2Tx-VuzL_oRfiSZg-106">
          <mxGeometry relative="1" as="geometry">
            <mxPoint x="931" y="789" as="sourcePoint" />
            <mxPoint x="1051" y="863" as="targetPoint" />
          </mxGeometry>
        </mxCell>
        <mxCell id="fZSX2Tx-VuzL_oRfiSZg-117" style="rounded=0;orthogonalLoop=1;jettySize=auto;html=1;exitX=1;exitY=0.5;exitDx=0;exitDy=0;entryX=0;entryY=0.5;entryDx=0;entryDy=0;endArrow=none;startFill=0;" edge="1" parent="1" source="fZSX2Tx-VuzL_oRfiSZg-104" target="fZSX2Tx-VuzL_oRfiSZg-107">
          <mxGeometry relative="1" as="geometry">
            <mxPoint x="941" y="799" as="sourcePoint" />
            <mxPoint x="1061" y="873" as="targetPoint" />
          </mxGeometry>
        </mxCell>
        <mxCell id="fZSX2Tx-VuzL_oRfiSZg-118" style="rounded=0;orthogonalLoop=1;jettySize=auto;html=1;exitX=1;exitY=0.5;exitDx=0;exitDy=0;entryX=0;entryY=0.5;entryDx=0;entryDy=0;endArrow=none;startFill=0;" edge="1" parent="1" source="fZSX2Tx-VuzL_oRfiSZg-104" target="fZSX2Tx-VuzL_oRfiSZg-106">
          <mxGeometry relative="1" as="geometry">
            <mxPoint x="931" y="869" as="sourcePoint" />
            <mxPoint x="1051" y="863" as="targetPoint" />
          </mxGeometry>
        </mxCell>
        <mxCell id="fZSX2Tx-VuzL_oRfiSZg-119" style="rounded=0;orthogonalLoop=1;jettySize=auto;html=1;exitX=1;exitY=0.5;exitDx=0;exitDy=0;entryX=0;entryY=0.5;entryDx=0;entryDy=0;endArrow=none;startFill=0;" edge="1" parent="1" source="fZSX2Tx-VuzL_oRfiSZg-105" target="fZSX2Tx-VuzL_oRfiSZg-109">
          <mxGeometry relative="1" as="geometry">
            <mxPoint x="1141" y="702" as="sourcePoint" />
            <mxPoint x="1261" y="696" as="targetPoint" />
          </mxGeometry>
        </mxCell>
        <mxCell id="fZSX2Tx-VuzL_oRfiSZg-120" style="rounded=0;orthogonalLoop=1;jettySize=auto;html=1;exitX=1;exitY=0.5;exitDx=0;exitDy=0;entryX=0;entryY=0.5;entryDx=0;entryDy=0;endArrow=none;startFill=0;" edge="1" parent="1" source="fZSX2Tx-VuzL_oRfiSZg-105" target="fZSX2Tx-VuzL_oRfiSZg-110">
          <mxGeometry relative="1" as="geometry">
            <mxPoint x="1091" y="713" as="sourcePoint" />
            <mxPoint x="1211" y="789" as="targetPoint" />
          </mxGeometry>
        </mxCell>
        <mxCell id="fZSX2Tx-VuzL_oRfiSZg-121" style="rounded=0;orthogonalLoop=1;jettySize=auto;html=1;exitX=1;exitY=0.5;exitDx=0;exitDy=0;entryX=0;entryY=0.5;entryDx=0;entryDy=0;endArrow=none;startFill=0;" edge="1" parent="1" source="fZSX2Tx-VuzL_oRfiSZg-108" target="fZSX2Tx-VuzL_oRfiSZg-109">
          <mxGeometry relative="1" as="geometry">
            <mxPoint x="1091" y="713" as="sourcePoint" />
            <mxPoint x="1211" y="869" as="targetPoint" />
          </mxGeometry>
        </mxCell>
        <mxCell id="fZSX2Tx-VuzL_oRfiSZg-122" style="rounded=0;orthogonalLoop=1;jettySize=auto;html=1;exitX=1;exitY=0.5;exitDx=0;exitDy=0;entryX=0;entryY=0.5;entryDx=0;entryDy=0;endArrow=none;startFill=0;" edge="1" parent="1" source="fZSX2Tx-VuzL_oRfiSZg-108" target="fZSX2Tx-VuzL_oRfiSZg-110">
          <mxGeometry relative="1" as="geometry">
            <mxPoint x="1091" y="793" as="sourcePoint" />
            <mxPoint x="1211" y="789" as="targetPoint" />
          </mxGeometry>
        </mxCell>
        <mxCell id="fZSX2Tx-VuzL_oRfiSZg-123" style="rounded=0;orthogonalLoop=1;jettySize=auto;html=1;exitX=1;exitY=0.5;exitDx=0;exitDy=0;entryX=0;entryY=0.5;entryDx=0;entryDy=0;endArrow=none;startFill=0;" edge="1" parent="1" source="fZSX2Tx-VuzL_oRfiSZg-107" target="fZSX2Tx-VuzL_oRfiSZg-109">
          <mxGeometry relative="1" as="geometry">
            <mxPoint x="1091" y="793" as="sourcePoint" />
            <mxPoint x="1211" y="869" as="targetPoint" />
          </mxGeometry>
        </mxCell>
        <mxCell id="fZSX2Tx-VuzL_oRfiSZg-124" style="rounded=0;orthogonalLoop=1;jettySize=auto;html=1;exitX=1;exitY=0.5;exitDx=0;exitDy=0;endArrow=none;startFill=0;entryX=0;entryY=0.5;entryDx=0;entryDy=0;" edge="1" parent="1" source="fZSX2Tx-VuzL_oRfiSZg-107" target="fZSX2Tx-VuzL_oRfiSZg-110">
          <mxGeometry relative="1" as="geometry">
            <mxPoint x="1091" y="863" as="sourcePoint" />
            <mxPoint x="1201" y="859" as="targetPoint" />
          </mxGeometry>
        </mxCell>
        <mxCell id="fZSX2Tx-VuzL_oRfiSZg-125" style="rounded=0;orthogonalLoop=1;jettySize=auto;html=1;exitX=1;exitY=0.5;exitDx=0;exitDy=0;entryX=0;entryY=0.5;entryDx=0;entryDy=0;endArrow=none;startFill=0;" edge="1" parent="1" source="fZSX2Tx-VuzL_oRfiSZg-106" target="fZSX2Tx-VuzL_oRfiSZg-110">
          <mxGeometry relative="1" as="geometry">
            <mxPoint x="1101" y="873" as="sourcePoint" />
            <mxPoint x="1221" y="799" as="targetPoint" />
          </mxGeometry>
        </mxCell>
        <mxCell id="fZSX2Tx-VuzL_oRfiSZg-126" style="rounded=0;orthogonalLoop=1;jettySize=auto;html=1;exitX=1;exitY=0.5;exitDx=0;exitDy=0;entryX=0;entryY=0.5;entryDx=0;entryDy=0;endArrow=none;startFill=0;" edge="1" parent="1" source="fZSX2Tx-VuzL_oRfiSZg-106" target="fZSX2Tx-VuzL_oRfiSZg-109">
          <mxGeometry relative="1" as="geometry">
            <mxPoint x="1091" y="953" as="sourcePoint" />
            <mxPoint x="1211" y="869" as="targetPoint" />
          </mxGeometry>
        </mxCell>
        <mxCell id="fZSX2Tx-VuzL_oRfiSZg-127" style="rounded=0;orthogonalLoop=1;jettySize=auto;html=1;exitX=1;exitY=0.5;exitDx=0;exitDy=0;entryX=0;entryY=0.5;entryDx=0;entryDy=0;endArrow=none;startFill=0;" edge="1" parent="1" source="fZSX2Tx-VuzL_oRfiSZg-55" target="fZSX2Tx-VuzL_oRfiSZg-103">
          <mxGeometry relative="1" as="geometry">
            <mxPoint x="640" y="630" as="sourcePoint" />
            <mxPoint x="760" y="790" as="targetPoint" />
          </mxGeometry>
        </mxCell>
        <mxCell id="fZSX2Tx-VuzL_oRfiSZg-128" style="rounded=0;orthogonalLoop=1;jettySize=auto;html=1;exitX=1;exitY=0.5;exitDx=0;exitDy=0;entryX=0;entryY=0.5;entryDx=0;entryDy=0;endArrow=none;startFill=0;" edge="1" parent="1" source="fZSX2Tx-VuzL_oRfiSZg-56" target="fZSX2Tx-VuzL_oRfiSZg-103">
          <mxGeometry relative="1" as="geometry">
            <mxPoint x="610" y="790" as="sourcePoint" />
            <mxPoint x="880" y="554" as="targetPoint" />
          </mxGeometry>
        </mxCell>
        <mxCell id="fZSX2Tx-VuzL_oRfiSZg-129" style="rounded=0;orthogonalLoop=1;jettySize=auto;html=1;exitX=1;exitY=0.5;exitDx=0;exitDy=0;entryX=0;entryY=0.5;entryDx=0;entryDy=0;endArrow=none;startFill=0;" edge="1" parent="1" source="fZSX2Tx-VuzL_oRfiSZg-55" target="fZSX2Tx-VuzL_oRfiSZg-104">
          <mxGeometry relative="1" as="geometry">
            <mxPoint x="610" y="870" as="sourcePoint" />
            <mxPoint x="880" y="554" as="targetPoint" />
          </mxGeometry>
        </mxCell>
        <mxCell id="fZSX2Tx-VuzL_oRfiSZg-130" style="rounded=0;orthogonalLoop=1;jettySize=auto;html=1;exitX=1;exitY=0.5;exitDx=0;exitDy=0;entryX=0;entryY=0.5;entryDx=0;entryDy=0;endArrow=none;startFill=0;" edge="1" parent="1" source="fZSX2Tx-VuzL_oRfiSZg-56" target="fZSX2Tx-VuzL_oRfiSZg-104">
          <mxGeometry relative="1" as="geometry">
            <mxPoint x="610" y="790" as="sourcePoint" />
            <mxPoint x="880" y="634" as="targetPoint" />
          </mxGeometry>
        </mxCell>
        <mxCell id="fZSX2Tx-VuzL_oRfiSZg-131" style="rounded=0;orthogonalLoop=1;jettySize=auto;html=1;exitX=1;exitY=0.5;exitDx=0;exitDy=0;entryX=0;entryY=0.5;entryDx=0;entryDy=0;endArrow=none;startFill=0;" edge="1" parent="1" source="fZSX2Tx-VuzL_oRfiSZg-11" target="fZSX2Tx-VuzL_oRfiSZg-103">
          <mxGeometry relative="1" as="geometry">
            <mxPoint x="610" y="790" as="sourcePoint" />
            <mxPoint x="880" y="554" as="targetPoint" />
          </mxGeometry>
        </mxCell>
        <mxCell id="fZSX2Tx-VuzL_oRfiSZg-132" style="rounded=0;orthogonalLoop=1;jettySize=auto;html=1;exitX=1;exitY=0.5;exitDx=0;exitDy=0;entryX=0;entryY=0.5;entryDx=0;entryDy=0;endArrow=none;startFill=0;" edge="1" parent="1" source="fZSX2Tx-VuzL_oRfiSZg-12" target="fZSX2Tx-VuzL_oRfiSZg-103">
          <mxGeometry relative="1" as="geometry">
            <mxPoint x="610" y="310" as="sourcePoint" />
            <mxPoint x="880" y="554" as="targetPoint" />
          </mxGeometry>
        </mxCell>
        <mxCell id="fZSX2Tx-VuzL_oRfiSZg-133" style="rounded=0;orthogonalLoop=1;jettySize=auto;html=1;exitX=1;exitY=0.5;exitDx=0;exitDy=0;entryX=0;entryY=0.5;entryDx=0;entryDy=0;endArrow=none;startFill=0;" edge="1" parent="1" source="fZSX2Tx-VuzL_oRfiSZg-11" target="fZSX2Tx-VuzL_oRfiSZg-104">
          <mxGeometry relative="1" as="geometry">
            <mxPoint x="610" y="310" as="sourcePoint" />
            <mxPoint x="880" y="554" as="targetPoint" />
          </mxGeometry>
        </mxCell>
        <mxCell id="fZSX2Tx-VuzL_oRfiSZg-134" style="rounded=0;orthogonalLoop=1;jettySize=auto;html=1;exitX=1;exitY=0.5;exitDx=0;exitDy=0;endArrow=none;startFill=0;entryX=0;entryY=0.5;entryDx=0;entryDy=0;" edge="1" parent="1" source="fZSX2Tx-VuzL_oRfiSZg-12" target="fZSX2Tx-VuzL_oRfiSZg-104">
          <mxGeometry relative="1" as="geometry">
            <mxPoint x="610" y="310" as="sourcePoint" />
            <mxPoint x="1040" y="330" as="targetPoint" />
          </mxGeometry>
        </mxCell>
        <mxCell id="fZSX2Tx-VuzL_oRfiSZg-135" value="&lt;font style=&quot;font-size: 28px;&quot;&gt;Inputs&lt;/font&gt;" style="text;html=1;align=center;verticalAlign=middle;whiteSpace=wrap;rounded=0;" vertex="1" parent="1">
          <mxGeometry x="150" y="70" width="60" height="30" as="geometry" />
        </mxCell>
        <mxCell id="fZSX2Tx-VuzL_oRfiSZg-136" value="&lt;font style=&quot;font-size: 28px;&quot;&gt;Hidden Layer&lt;/font&gt;" style="text;html=1;align=center;verticalAlign=middle;whiteSpace=wrap;rounded=0;" vertex="1" parent="1">
          <mxGeometry x="280" y="70" width="200" height="30" as="geometry" />
        </mxCell>
        <mxCell id="fZSX2Tx-VuzL_oRfiSZg-137" value="&lt;font style=&quot;font-size: 28px;&quot;&gt;Raw Outputs&lt;/font&gt;" style="text;html=1;align=center;verticalAlign=middle;whiteSpace=wrap;rounded=0;" vertex="1" parent="1">
          <mxGeometry x="485" y="70" width="190" height="30" as="geometry" />
        </mxCell>
        <mxCell id="fZSX2Tx-VuzL_oRfiSZg-138" value="" style="whiteSpace=wrap;html=1;aspect=fixed;fillColor=none;strokeColor=#d6b656;strokeWidth=4;" vertex="1" parent="1">
          <mxGeometry x="866" y="625" width="390" height="390" as="geometry" />
        </mxCell>
        <mxCell id="fZSX2Tx-VuzL_oRfiSZg-139" value="&lt;span style=&quot;font-size: 28px;&quot;&gt;Global Model&lt;/span&gt;" style="text;html=1;align=center;verticalAlign=middle;whiteSpace=wrap;rounded=0;" vertex="1" parent="1">
          <mxGeometry x="966" y="585" width="190" height="30" as="geometry" />
        </mxCell>
        <mxCell id="fZSX2Tx-VuzL_oRfiSZg-140" value="" style="ellipse;whiteSpace=wrap;html=1;aspect=fixed;fillColor=#000000;" vertex="1" parent="1">
          <mxGeometry x="370" y="1081" width="20" height="20" as="geometry" />
        </mxCell>
        <mxCell id="fZSX2Tx-VuzL_oRfiSZg-141" value="" style="ellipse;whiteSpace=wrap;html=1;aspect=fixed;fillColor=#000000;" vertex="1" parent="1">
          <mxGeometry x="370" y="1130" width="20" height="20" as="geometry" />
        </mxCell>
        <mxCell id="fZSX2Tx-VuzL_oRfiSZg-142" value="" style="ellipse;whiteSpace=wrap;html=1;aspect=fixed;fillColor=#000000;" vertex="1" parent="1">
          <mxGeometry x="370" y="1181" width="20" height="20" as="geometry" />
        </mxCell>
        <mxCell id="fZSX2Tx-VuzL_oRfiSZg-143" value="" style="ellipse;whiteSpace=wrap;html=1;aspect=fixed;fillColor=#000000;" vertex="1" parent="1">
          <mxGeometry x="170" y="1080" width="20" height="20" as="geometry" />
        </mxCell>
        <mxCell id="fZSX2Tx-VuzL_oRfiSZg-144" value="" style="ellipse;whiteSpace=wrap;html=1;aspect=fixed;fillColor=#000000;" vertex="1" parent="1">
          <mxGeometry x="170" y="1129" width="20" height="20" as="geometry" />
        </mxCell>
        <mxCell id="fZSX2Tx-VuzL_oRfiSZg-145" value="" style="ellipse;whiteSpace=wrap;html=1;aspect=fixed;fillColor=#000000;" vertex="1" parent="1">
          <mxGeometry x="170" y="1180" width="20" height="20" as="geometry" />
        </mxCell>
        <mxCell id="fZSX2Tx-VuzL_oRfiSZg-146" value="" style="ellipse;whiteSpace=wrap;html=1;aspect=fixed;fillColor=#000000;" vertex="1" parent="1">
          <mxGeometry x="570" y="1081" width="20" height="20" as="geometry" />
        </mxCell>
        <mxCell id="fZSX2Tx-VuzL_oRfiSZg-147" value="" style="ellipse;whiteSpace=wrap;html=1;aspect=fixed;fillColor=#000000;" vertex="1" parent="1">
          <mxGeometry x="570" y="1130" width="20" height="20" as="geometry" />
        </mxCell>
        <mxCell id="fZSX2Tx-VuzL_oRfiSZg-148" value="" style="ellipse;whiteSpace=wrap;html=1;aspect=fixed;fillColor=#000000;" vertex="1" parent="1">
          <mxGeometry x="570" y="1181" width="20" height="20" as="geometry" />
        </mxCell>
        <mxCell id="fZSX2Tx-VuzL_oRfiSZg-149" value="" style="ellipse;whiteSpace=wrap;html=1;aspect=fixed;strokeColor=#4D4D4D;fillColor=#4D4D4D;" vertex="1" parent="1">
          <mxGeometry x="160" y="1440" width="40" height="40" as="geometry" />
        </mxCell>
        <mxCell id="fZSX2Tx-VuzL_oRfiSZg-150" style="rounded=0;orthogonalLoop=1;jettySize=auto;html=1;exitX=1;exitY=0.5;exitDx=0;exitDy=0;entryX=0;entryY=0.5;entryDx=0;entryDy=0;endArrow=none;startFill=0;" edge="1" parent="1" source="fZSX2Tx-VuzL_oRfiSZg-151" target="fZSX2Tx-VuzL_oRfiSZg-154">
          <mxGeometry relative="1" as="geometry" />
        </mxCell>
        <mxCell id="fZSX2Tx-VuzL_oRfiSZg-151" value="" style="ellipse;whiteSpace=wrap;html=1;aspect=fixed;strokeColor=#3333FF;fillColor=#3333FF;" vertex="1" parent="1">
          <mxGeometry x="160" y="1280" width="40" height="40" as="geometry" />
        </mxCell>
        <mxCell id="fZSX2Tx-VuzL_oRfiSZg-152" value="" style="ellipse;whiteSpace=wrap;html=1;aspect=fixed;strokeColor=#3333FF;fillColor=#3333FF;" vertex="1" parent="1">
          <mxGeometry x="160" y="1360" width="40" height="40" as="geometry" />
        </mxCell>
        <mxCell id="fZSX2Tx-VuzL_oRfiSZg-153" value="" style="ellipse;whiteSpace=wrap;html=1;aspect=fixed;strokeColor=#4D4D4D;fillColor=#4D4D4D;" vertex="1" parent="1">
          <mxGeometry x="160" y="1520" width="40" height="40" as="geometry" />
        </mxCell>
        <mxCell id="fZSX2Tx-VuzL_oRfiSZg-154" value="" style="ellipse;whiteSpace=wrap;html=1;aspect=fixed;strokeColor=#3333FF;fillColor=#3333FF;" vertex="1" parent="1">
          <mxGeometry x="360" y="1240" width="40" height="40" as="geometry" />
        </mxCell>
        <mxCell id="fZSX2Tx-VuzL_oRfiSZg-155" value="" style="ellipse;whiteSpace=wrap;html=1;aspect=fixed;strokeColor=#3333FF;fillColor=#3333FF;" vertex="1" parent="1">
          <mxGeometry x="360" y="1400" width="40" height="40" as="geometry" />
        </mxCell>
        <mxCell id="fZSX2Tx-VuzL_oRfiSZg-156" value="" style="ellipse;whiteSpace=wrap;html=1;aspect=fixed;strokeColor=#3333FF;fillColor=#3333FF;" vertex="1" parent="1">
          <mxGeometry x="360" y="1320" width="40" height="40" as="geometry" />
        </mxCell>
        <mxCell id="fZSX2Tx-VuzL_oRfiSZg-157" value="" style="ellipse;whiteSpace=wrap;html=1;aspect=fixed;strokeColor=#4D4D4D;fillColor=#4D4D4D;" vertex="1" parent="1">
          <mxGeometry x="360" y="1560" width="40" height="40" as="geometry" />
        </mxCell>
        <mxCell id="fZSX2Tx-VuzL_oRfiSZg-158" value="" style="ellipse;whiteSpace=wrap;html=1;aspect=fixed;strokeColor=#4D4D4D;fillColor=#4D4D4D;" vertex="1" parent="1">
          <mxGeometry x="360" y="1480" width="40" height="40" as="geometry" />
        </mxCell>
        <mxCell id="fZSX2Tx-VuzL_oRfiSZg-159" value="" style="ellipse;whiteSpace=wrap;html=1;aspect=fixed;strokeColor=#CC0000;fillColor=#CC0000;" vertex="1" parent="1">
          <mxGeometry x="560" y="1400" width="40" height="40" as="geometry" />
        </mxCell>
        <mxCell id="fZSX2Tx-VuzL_oRfiSZg-160" value="" style="ellipse;whiteSpace=wrap;html=1;aspect=fixed;strokeColor=#CC0000;fillColor=#CC0000;" vertex="1" parent="1">
          <mxGeometry x="560" y="1480" width="40" height="40" as="geometry" />
        </mxCell>
        <mxCell id="fZSX2Tx-VuzL_oRfiSZg-161" style="rounded=0;orthogonalLoop=1;jettySize=auto;html=1;exitX=1;exitY=0.5;exitDx=0;exitDy=0;entryX=0;entryY=0.5;entryDx=0;entryDy=0;endArrow=none;startFill=0;" edge="1" parent="1" source="fZSX2Tx-VuzL_oRfiSZg-151" target="fZSX2Tx-VuzL_oRfiSZg-156">
          <mxGeometry relative="1" as="geometry">
            <mxPoint x="210" y="1310" as="sourcePoint" />
            <mxPoint x="330" y="1270" as="targetPoint" />
          </mxGeometry>
        </mxCell>
        <mxCell id="fZSX2Tx-VuzL_oRfiSZg-162" style="rounded=0;orthogonalLoop=1;jettySize=auto;html=1;exitX=1;exitY=0.5;exitDx=0;exitDy=0;entryX=0;entryY=0.5;entryDx=0;entryDy=0;endArrow=none;startFill=0;" edge="1" parent="1" source="fZSX2Tx-VuzL_oRfiSZg-151" target="fZSX2Tx-VuzL_oRfiSZg-155">
          <mxGeometry relative="1" as="geometry">
            <mxPoint x="210" y="1310" as="sourcePoint" />
            <mxPoint x="330" y="1350" as="targetPoint" />
          </mxGeometry>
        </mxCell>
        <mxCell id="fZSX2Tx-VuzL_oRfiSZg-163" style="rounded=0;orthogonalLoop=1;jettySize=auto;html=1;exitX=1;exitY=0.5;exitDx=0;exitDy=0;endArrow=none;startFill=0;entryX=0;entryY=0.5;entryDx=0;entryDy=0;" edge="1" parent="1" source="fZSX2Tx-VuzL_oRfiSZg-152" target="fZSX2Tx-VuzL_oRfiSZg-154">
          <mxGeometry relative="1" as="geometry">
            <mxPoint x="210" y="1310" as="sourcePoint" />
            <mxPoint x="320" y="1260" as="targetPoint" />
          </mxGeometry>
        </mxCell>
        <mxCell id="fZSX2Tx-VuzL_oRfiSZg-164" style="rounded=0;orthogonalLoop=1;jettySize=auto;html=1;exitX=1;exitY=0.5;exitDx=0;exitDy=0;entryX=0;entryY=0.5;entryDx=0;entryDy=0;endArrow=none;startFill=0;" edge="1" parent="1" source="fZSX2Tx-VuzL_oRfiSZg-151" target="fZSX2Tx-VuzL_oRfiSZg-157">
          <mxGeometry relative="1" as="geometry">
            <mxPoint x="220" y="1320" as="sourcePoint" />
            <mxPoint x="340" y="1440" as="targetPoint" />
          </mxGeometry>
        </mxCell>
        <mxCell id="fZSX2Tx-VuzL_oRfiSZg-165" style="rounded=0;orthogonalLoop=1;jettySize=auto;html=1;exitX=1;exitY=0.5;exitDx=0;exitDy=0;entryX=0;entryY=0.5;entryDx=0;entryDy=0;endArrow=none;startFill=0;" edge="1" parent="1" source="fZSX2Tx-VuzL_oRfiSZg-151" target="fZSX2Tx-VuzL_oRfiSZg-158">
          <mxGeometry relative="1" as="geometry">
            <mxPoint x="230" y="1330" as="sourcePoint" />
            <mxPoint x="350" y="1450" as="targetPoint" />
          </mxGeometry>
        </mxCell>
        <mxCell id="fZSX2Tx-VuzL_oRfiSZg-166" style="rounded=0;orthogonalLoop=1;jettySize=auto;html=1;exitX=0;exitY=0.5;exitDx=0;exitDy=0;entryX=1;entryY=0.5;entryDx=0;entryDy=0;endArrow=none;startFill=0;" edge="1" parent="1" source="fZSX2Tx-VuzL_oRfiSZg-156" target="fZSX2Tx-VuzL_oRfiSZg-149">
          <mxGeometry relative="1" as="geometry">
            <mxPoint x="240" y="1340" as="sourcePoint" />
            <mxPoint x="360" y="1460" as="targetPoint" />
          </mxGeometry>
        </mxCell>
        <mxCell id="fZSX2Tx-VuzL_oRfiSZg-167" style="rounded=0;orthogonalLoop=1;jettySize=auto;html=1;exitX=0;exitY=0.5;exitDx=0;exitDy=0;entryX=1;entryY=0.5;entryDx=0;entryDy=0;endArrow=none;startFill=0;" edge="1" parent="1" source="fZSX2Tx-VuzL_oRfiSZg-154" target="fZSX2Tx-VuzL_oRfiSZg-153">
          <mxGeometry relative="1" as="geometry">
            <mxPoint x="250" y="1350" as="sourcePoint" />
            <mxPoint x="370" y="1470" as="targetPoint" />
          </mxGeometry>
        </mxCell>
        <mxCell id="fZSX2Tx-VuzL_oRfiSZg-168" style="rounded=0;orthogonalLoop=1;jettySize=auto;html=1;exitX=0;exitY=0.5;exitDx=0;exitDy=0;entryX=1;entryY=0.5;entryDx=0;entryDy=0;endArrow=none;startFill=0;" edge="1" parent="1" source="fZSX2Tx-VuzL_oRfiSZg-156" target="fZSX2Tx-VuzL_oRfiSZg-153">
          <mxGeometry relative="1" as="geometry">
            <mxPoint x="330" y="1270" as="sourcePoint" />
            <mxPoint x="210" y="1550" as="targetPoint" />
          </mxGeometry>
        </mxCell>
        <mxCell id="fZSX2Tx-VuzL_oRfiSZg-169" style="rounded=0;orthogonalLoop=1;jettySize=auto;html=1;entryX=1;entryY=0.5;entryDx=0;entryDy=0;endArrow=none;startFill=0;exitX=0;exitY=0.5;exitDx=0;exitDy=0;" edge="1" parent="1" source="fZSX2Tx-VuzL_oRfiSZg-157" target="fZSX2Tx-VuzL_oRfiSZg-153">
          <mxGeometry relative="1" as="geometry">
            <mxPoint x="320" y="1580" as="sourcePoint" />
            <mxPoint x="210" y="1550" as="targetPoint" />
          </mxGeometry>
        </mxCell>
        <mxCell id="fZSX2Tx-VuzL_oRfiSZg-170" style="rounded=0;orthogonalLoop=1;jettySize=auto;html=1;exitX=0;exitY=0.5;exitDx=0;exitDy=0;endArrow=none;startFill=0;entryX=1;entryY=0.5;entryDx=0;entryDy=0;" edge="1" parent="1" source="fZSX2Tx-VuzL_oRfiSZg-155" target="fZSX2Tx-VuzL_oRfiSZg-153">
          <mxGeometry relative="1" as="geometry">
            <mxPoint x="340" y="1360" as="sourcePoint" />
            <mxPoint x="200" y="1540" as="targetPoint" />
          </mxGeometry>
        </mxCell>
        <mxCell id="fZSX2Tx-VuzL_oRfiSZg-171" style="rounded=0;orthogonalLoop=1;jettySize=auto;html=1;exitX=0;exitY=0.5;exitDx=0;exitDy=0;entryX=1;entryY=0.5;entryDx=0;entryDy=0;endArrow=none;startFill=0;" edge="1" parent="1" source="fZSX2Tx-VuzL_oRfiSZg-155" target="fZSX2Tx-VuzL_oRfiSZg-149">
          <mxGeometry relative="1" as="geometry">
            <mxPoint x="330" y="1350" as="sourcePoint" />
            <mxPoint x="210" y="1470" as="targetPoint" />
          </mxGeometry>
        </mxCell>
        <mxCell id="fZSX2Tx-VuzL_oRfiSZg-172" style="rounded=0;orthogonalLoop=1;jettySize=auto;html=1;exitX=0;exitY=0.5;exitDx=0;exitDy=0;entryX=1;entryY=0.5;entryDx=0;entryDy=0;endArrow=none;startFill=0;" edge="1" parent="1" source="fZSX2Tx-VuzL_oRfiSZg-154" target="fZSX2Tx-VuzL_oRfiSZg-149">
          <mxGeometry relative="1" as="geometry">
            <mxPoint x="340" y="1360" as="sourcePoint" />
            <mxPoint x="220" y="1480" as="targetPoint" />
          </mxGeometry>
        </mxCell>
        <mxCell id="fZSX2Tx-VuzL_oRfiSZg-173" style="rounded=0;orthogonalLoop=1;jettySize=auto;html=1;exitX=1;exitY=0.5;exitDx=0;exitDy=0;endArrow=none;startFill=0;entryX=0;entryY=0.5;entryDx=0;entryDy=0;" edge="1" parent="1" source="fZSX2Tx-VuzL_oRfiSZg-152" target="fZSX2Tx-VuzL_oRfiSZg-156">
          <mxGeometry relative="1" as="geometry">
            <mxPoint x="210" y="1390" as="sourcePoint" />
            <mxPoint x="330" y="1270" as="targetPoint" />
          </mxGeometry>
        </mxCell>
        <mxCell id="fZSX2Tx-VuzL_oRfiSZg-174" style="rounded=0;orthogonalLoop=1;jettySize=auto;html=1;exitX=1;exitY=0.5;exitDx=0;exitDy=0;endArrow=none;startFill=0;entryX=0;entryY=0.5;entryDx=0;entryDy=0;" edge="1" parent="1" source="fZSX2Tx-VuzL_oRfiSZg-152" target="fZSX2Tx-VuzL_oRfiSZg-155">
          <mxGeometry relative="1" as="geometry">
            <mxPoint x="210" y="1390" as="sourcePoint" />
            <mxPoint x="330" y="1350" as="targetPoint" />
          </mxGeometry>
        </mxCell>
        <mxCell id="fZSX2Tx-VuzL_oRfiSZg-175" style="rounded=0;orthogonalLoop=1;jettySize=auto;html=1;exitX=1;exitY=0.5;exitDx=0;exitDy=0;endArrow=none;startFill=0;entryX=0;entryY=0.5;entryDx=0;entryDy=0;" edge="1" parent="1" source="fZSX2Tx-VuzL_oRfiSZg-152" target="fZSX2Tx-VuzL_oRfiSZg-158">
          <mxGeometry relative="1" as="geometry">
            <mxPoint x="210" y="1390" as="sourcePoint" />
            <mxPoint x="330" y="1430" as="targetPoint" />
          </mxGeometry>
        </mxCell>
        <mxCell id="fZSX2Tx-VuzL_oRfiSZg-176" style="rounded=0;orthogonalLoop=1;jettySize=auto;html=1;exitX=1;exitY=0.5;exitDx=0;exitDy=0;endArrow=none;startFill=0;entryX=0;entryY=0.5;entryDx=0;entryDy=0;" edge="1" parent="1" source="fZSX2Tx-VuzL_oRfiSZg-152" target="fZSX2Tx-VuzL_oRfiSZg-157">
          <mxGeometry relative="1" as="geometry">
            <mxPoint x="210" y="1390" as="sourcePoint" />
            <mxPoint x="330" y="1510" as="targetPoint" />
          </mxGeometry>
        </mxCell>
        <mxCell id="fZSX2Tx-VuzL_oRfiSZg-177" style="rounded=0;orthogonalLoop=1;jettySize=auto;html=1;endArrow=none;startFill=0;entryX=1;entryY=0.5;entryDx=0;entryDy=0;exitX=0;exitY=0.5;exitDx=0;exitDy=0;" edge="1" parent="1" source="fZSX2Tx-VuzL_oRfiSZg-158" target="fZSX2Tx-VuzL_oRfiSZg-153">
          <mxGeometry relative="1" as="geometry">
            <mxPoint x="330" y="1590" as="sourcePoint" />
            <mxPoint x="200" y="1540" as="targetPoint" />
          </mxGeometry>
        </mxCell>
        <mxCell id="fZSX2Tx-VuzL_oRfiSZg-178" style="rounded=0;orthogonalLoop=1;jettySize=auto;html=1;exitX=0;exitY=0.5;exitDx=0;exitDy=0;entryX=1;entryY=0.5;entryDx=0;entryDy=0;endArrow=none;startFill=0;" edge="1" parent="1" source="fZSX2Tx-VuzL_oRfiSZg-158" target="fZSX2Tx-VuzL_oRfiSZg-149">
          <mxGeometry relative="1" as="geometry">
            <mxPoint x="330" y="1430" as="sourcePoint" />
            <mxPoint x="210" y="1470" as="targetPoint" />
          </mxGeometry>
        </mxCell>
        <mxCell id="fZSX2Tx-VuzL_oRfiSZg-179" style="rounded=0;orthogonalLoop=1;jettySize=auto;html=1;exitX=0;exitY=0.5;exitDx=0;exitDy=0;entryX=1;entryY=0.5;entryDx=0;entryDy=0;endArrow=none;startFill=0;" edge="1" parent="1" source="fZSX2Tx-VuzL_oRfiSZg-157" target="fZSX2Tx-VuzL_oRfiSZg-149">
          <mxGeometry relative="1" as="geometry">
            <mxPoint x="330" y="1510" as="sourcePoint" />
            <mxPoint x="210" y="1470" as="targetPoint" />
          </mxGeometry>
        </mxCell>
        <mxCell id="fZSX2Tx-VuzL_oRfiSZg-180" style="rounded=0;orthogonalLoop=1;jettySize=auto;html=1;exitX=1;exitY=0.5;exitDx=0;exitDy=0;entryX=0;entryY=0.5;entryDx=0;entryDy=0;endArrow=none;startFill=0;" edge="1" parent="1" source="fZSX2Tx-VuzL_oRfiSZg-154" target="fZSX2Tx-VuzL_oRfiSZg-159">
          <mxGeometry relative="1" as="geometry">
            <mxPoint x="490" y="1260" as="sourcePoint" />
            <mxPoint x="610" y="1220" as="targetPoint" />
          </mxGeometry>
        </mxCell>
        <mxCell id="fZSX2Tx-VuzL_oRfiSZg-181" style="rounded=0;orthogonalLoop=1;jettySize=auto;html=1;exitX=1;exitY=0.5;exitDx=0;exitDy=0;entryX=0;entryY=0.5;entryDx=0;entryDy=0;endArrow=none;startFill=0;" edge="1" parent="1" source="fZSX2Tx-VuzL_oRfiSZg-154" target="fZSX2Tx-VuzL_oRfiSZg-160">
          <mxGeometry relative="1" as="geometry">
            <mxPoint x="410" y="1270" as="sourcePoint" />
            <mxPoint x="530" y="1390" as="targetPoint" />
          </mxGeometry>
        </mxCell>
        <mxCell id="fZSX2Tx-VuzL_oRfiSZg-182" style="rounded=0;orthogonalLoop=1;jettySize=auto;html=1;exitX=1;exitY=0.5;exitDx=0;exitDy=0;entryX=0;entryY=0.5;entryDx=0;entryDy=0;endArrow=none;startFill=0;" edge="1" parent="1" source="fZSX2Tx-VuzL_oRfiSZg-156" target="fZSX2Tx-VuzL_oRfiSZg-159">
          <mxGeometry relative="1" as="geometry">
            <mxPoint x="410" y="1270" as="sourcePoint" />
            <mxPoint x="530" y="1470" as="targetPoint" />
          </mxGeometry>
        </mxCell>
        <mxCell id="fZSX2Tx-VuzL_oRfiSZg-183" style="rounded=0;orthogonalLoop=1;jettySize=auto;html=1;exitX=1;exitY=0.5;exitDx=0;exitDy=0;entryX=0;entryY=0.5;entryDx=0;entryDy=0;endArrow=none;startFill=0;" edge="1" parent="1" source="fZSX2Tx-VuzL_oRfiSZg-156" target="fZSX2Tx-VuzL_oRfiSZg-160">
          <mxGeometry relative="1" as="geometry">
            <mxPoint x="410" y="1350" as="sourcePoint" />
            <mxPoint x="530" y="1390" as="targetPoint" />
          </mxGeometry>
        </mxCell>
        <mxCell id="fZSX2Tx-VuzL_oRfiSZg-184" style="rounded=0;orthogonalLoop=1;jettySize=auto;html=1;exitX=1;exitY=0.5;exitDx=0;exitDy=0;entryX=0;entryY=0.5;entryDx=0;entryDy=0;endArrow=none;startFill=0;" edge="1" parent="1" source="fZSX2Tx-VuzL_oRfiSZg-155" target="fZSX2Tx-VuzL_oRfiSZg-159">
          <mxGeometry relative="1" as="geometry">
            <mxPoint x="410" y="1350" as="sourcePoint" />
            <mxPoint x="530" y="1470" as="targetPoint" />
          </mxGeometry>
        </mxCell>
        <mxCell id="fZSX2Tx-VuzL_oRfiSZg-185" style="rounded=0;orthogonalLoop=1;jettySize=auto;html=1;exitX=1;exitY=0.5;exitDx=0;exitDy=0;entryX=0;entryY=0.5;entryDx=0;entryDy=0;endArrow=none;startFill=0;" edge="1" parent="1" source="fZSX2Tx-VuzL_oRfiSZg-158" target="fZSX2Tx-VuzL_oRfiSZg-160">
          <mxGeometry relative="1" as="geometry">
            <mxPoint x="410" y="1430" as="sourcePoint" />
            <mxPoint x="530" y="1390" as="targetPoint" />
          </mxGeometry>
        </mxCell>
        <mxCell id="fZSX2Tx-VuzL_oRfiSZg-186" style="rounded=0;orthogonalLoop=1;jettySize=auto;html=1;exitX=1;exitY=0.5;exitDx=0;exitDy=0;entryX=0;entryY=0.5;entryDx=0;entryDy=0;endArrow=none;startFill=0;" edge="1" parent="1" source="fZSX2Tx-VuzL_oRfiSZg-158" target="fZSX2Tx-VuzL_oRfiSZg-159">
          <mxGeometry relative="1" as="geometry">
            <mxPoint x="410" y="1510" as="sourcePoint" />
            <mxPoint x="530" y="1470" as="targetPoint" />
          </mxGeometry>
        </mxCell>
        <mxCell id="fZSX2Tx-VuzL_oRfiSZg-187" style="rounded=0;orthogonalLoop=1;jettySize=auto;html=1;exitX=1;exitY=0.5;exitDx=0;exitDy=0;entryX=0;entryY=0.5;entryDx=0;entryDy=0;endArrow=none;startFill=0;" edge="1" parent="1" source="fZSX2Tx-VuzL_oRfiSZg-155" target="fZSX2Tx-VuzL_oRfiSZg-160">
          <mxGeometry relative="1" as="geometry">
            <mxPoint x="410" y="1430" as="sourcePoint" />
            <mxPoint x="530" y="1390" as="targetPoint" />
          </mxGeometry>
        </mxCell>
        <mxCell id="fZSX2Tx-VuzL_oRfiSZg-188" style="rounded=0;orthogonalLoop=1;jettySize=auto;html=1;exitX=1;exitY=0.5;exitDx=0;exitDy=0;entryX=0;entryY=0.5;entryDx=0;entryDy=0;endArrow=none;startFill=0;" edge="1" parent="1" source="fZSX2Tx-VuzL_oRfiSZg-157" target="fZSX2Tx-VuzL_oRfiSZg-160">
          <mxGeometry relative="1" as="geometry">
            <mxPoint x="420" y="1440" as="sourcePoint" />
            <mxPoint x="540" y="1400" as="targetPoint" />
          </mxGeometry>
        </mxCell>
        <mxCell id="fZSX2Tx-VuzL_oRfiSZg-189" style="rounded=0;orthogonalLoop=1;jettySize=auto;html=1;exitX=1;exitY=0.5;exitDx=0;exitDy=0;entryX=0;entryY=0.5;entryDx=0;entryDy=0;endArrow=none;startFill=0;" edge="1" parent="1" source="fZSX2Tx-VuzL_oRfiSZg-157" target="fZSX2Tx-VuzL_oRfiSZg-159">
          <mxGeometry relative="1" as="geometry">
            <mxPoint x="411" y="1586" as="sourcePoint" />
            <mxPoint x="530" y="1470" as="targetPoint" />
          </mxGeometry>
        </mxCell>
        <mxCell id="fZSX2Tx-VuzL_oRfiSZg-190" value="&lt;font style=&quot;font-size: 18px;&quot;&gt;Shared Model &lt;i&gt;N&lt;/i&gt;&lt;/font&gt;" style="rounded=0;whiteSpace=wrap;html=1;rotation=-90;" vertex="1" parent="1">
          <mxGeometry x="-180" y="1430" width="440" height="60" as="geometry" />
        </mxCell>
        <mxCell id="fZSX2Tx-VuzL_oRfiSZg-191" value="&lt;font style=&quot;font-size: 20px;&quot;&gt;Party 1&lt;/font&gt;" style="rounded=0;whiteSpace=wrap;html=1;rotation=-90;" vertex="1" parent="1">
          <mxGeometry x="60" y="1310" width="115" height="60" as="geometry" />
        </mxCell>
        <mxCell id="fZSX2Tx-VuzL_oRfiSZg-192" value="&lt;font style=&quot;font-size: 20px;&quot;&gt;Party &lt;i&gt;N&lt;/i&gt;&lt;/font&gt;" style="rounded=0;whiteSpace=wrap;html=1;rotation=-90;" vertex="1" parent="1">
          <mxGeometry x="20" y="1510" width="195" height="60" as="geometry" />
        </mxCell>
        <mxCell id="fZSX2Tx-VuzL_oRfiSZg-193" value="" style="ellipse;whiteSpace=wrap;html=1;aspect=fixed;strokeColor=#4D4D4D;fillColor=#4D4D4D;" vertex="1" parent="1">
          <mxGeometry x="360" y="1640" width="40" height="40" as="geometry" />
        </mxCell>
        <mxCell id="fZSX2Tx-VuzL_oRfiSZg-194" value="" style="ellipse;whiteSpace=wrap;html=1;aspect=fixed;strokeColor=#4D4D4D;fillColor=#4D4D4D;" vertex="1" parent="1">
          <mxGeometry x="160" y="1600" width="40" height="40" as="geometry" />
        </mxCell>
        <mxCell id="fZSX2Tx-VuzL_oRfiSZg-195" style="rounded=0;orthogonalLoop=1;jettySize=auto;html=1;endArrow=none;startFill=0;entryX=1;entryY=0.5;entryDx=0;entryDy=0;exitX=0;exitY=0.5;exitDx=0;exitDy=0;" edge="1" parent="1" source="fZSX2Tx-VuzL_oRfiSZg-154" target="fZSX2Tx-VuzL_oRfiSZg-194">
          <mxGeometry relative="1" as="geometry">
            <mxPoint x="330" y="1510" as="sourcePoint" />
            <mxPoint x="210" y="1550" as="targetPoint" />
          </mxGeometry>
        </mxCell>
        <mxCell id="fZSX2Tx-VuzL_oRfiSZg-196" style="rounded=0;orthogonalLoop=1;jettySize=auto;html=1;endArrow=none;startFill=0;entryX=1;entryY=0.5;entryDx=0;entryDy=0;exitX=0;exitY=0.5;exitDx=0;exitDy=0;" edge="1" parent="1" source="fZSX2Tx-VuzL_oRfiSZg-156" target="fZSX2Tx-VuzL_oRfiSZg-194">
          <mxGeometry relative="1" as="geometry">
            <mxPoint x="330" y="1270" as="sourcePoint" />
            <mxPoint x="210" y="1630" as="targetPoint" />
          </mxGeometry>
        </mxCell>
        <mxCell id="fZSX2Tx-VuzL_oRfiSZg-197" style="rounded=0;orthogonalLoop=1;jettySize=auto;html=1;endArrow=none;startFill=0;entryX=1;entryY=0.5;entryDx=0;entryDy=0;exitX=0;exitY=0.5;exitDx=0;exitDy=0;" edge="1" parent="1" source="fZSX2Tx-VuzL_oRfiSZg-155" target="fZSX2Tx-VuzL_oRfiSZg-194">
          <mxGeometry relative="1" as="geometry">
            <mxPoint x="330" y="1350" as="sourcePoint" />
            <mxPoint x="210" y="1630" as="targetPoint" />
          </mxGeometry>
        </mxCell>
        <mxCell id="fZSX2Tx-VuzL_oRfiSZg-198" style="rounded=0;orthogonalLoop=1;jettySize=auto;html=1;endArrow=none;startFill=0;exitX=0;exitY=0.5;exitDx=0;exitDy=0;" edge="1" parent="1" source="fZSX2Tx-VuzL_oRfiSZg-158">
          <mxGeometry relative="1" as="geometry">
            <mxPoint x="330" y="1430" as="sourcePoint" />
            <mxPoint x="200" y="1620" as="targetPoint" />
          </mxGeometry>
        </mxCell>
        <mxCell id="fZSX2Tx-VuzL_oRfiSZg-199" style="rounded=0;orthogonalLoop=1;jettySize=auto;html=1;endArrow=none;startFill=0;exitX=0;exitY=0.5;exitDx=0;exitDy=0;entryX=1;entryY=0.5;entryDx=0;entryDy=0;" edge="1" parent="1" source="fZSX2Tx-VuzL_oRfiSZg-157" target="fZSX2Tx-VuzL_oRfiSZg-194">
          <mxGeometry relative="1" as="geometry">
            <mxPoint x="330" y="1510" as="sourcePoint" />
            <mxPoint x="210" y="1630" as="targetPoint" />
          </mxGeometry>
        </mxCell>
        <mxCell id="fZSX2Tx-VuzL_oRfiSZg-200" style="rounded=0;orthogonalLoop=1;jettySize=auto;html=1;endArrow=none;startFill=0;exitX=0;exitY=0.5;exitDx=0;exitDy=0;entryX=1;entryY=0.5;entryDx=0;entryDy=0;" edge="1" parent="1" source="fZSX2Tx-VuzL_oRfiSZg-193" target="fZSX2Tx-VuzL_oRfiSZg-194">
          <mxGeometry relative="1" as="geometry">
            <mxPoint x="330" y="1590" as="sourcePoint" />
            <mxPoint x="210" y="1630" as="targetPoint" />
          </mxGeometry>
        </mxCell>
        <mxCell id="fZSX2Tx-VuzL_oRfiSZg-201" style="rounded=0;orthogonalLoop=1;jettySize=auto;html=1;endArrow=none;startFill=0;exitX=0;exitY=0.5;exitDx=0;exitDy=0;entryX=1;entryY=0.5;entryDx=0;entryDy=0;" edge="1" parent="1" source="fZSX2Tx-VuzL_oRfiSZg-193" target="fZSX2Tx-VuzL_oRfiSZg-153">
          <mxGeometry relative="1" as="geometry">
            <mxPoint x="330" y="1670" as="sourcePoint" />
            <mxPoint x="210" y="1630" as="targetPoint" />
          </mxGeometry>
        </mxCell>
        <mxCell id="fZSX2Tx-VuzL_oRfiSZg-202" style="rounded=0;orthogonalLoop=1;jettySize=auto;html=1;endArrow=none;startFill=0;exitX=0;exitY=0.5;exitDx=0;exitDy=0;entryX=1;entryY=0.5;entryDx=0;entryDy=0;" edge="1" parent="1" source="fZSX2Tx-VuzL_oRfiSZg-193" target="fZSX2Tx-VuzL_oRfiSZg-149">
          <mxGeometry relative="1" as="geometry">
            <mxPoint x="330" y="1670" as="sourcePoint" />
            <mxPoint x="210" y="1550" as="targetPoint" />
          </mxGeometry>
        </mxCell>
        <mxCell id="fZSX2Tx-VuzL_oRfiSZg-203" style="rounded=0;orthogonalLoop=1;jettySize=auto;html=1;endArrow=none;startFill=0;exitX=0;exitY=0.5;exitDx=0;exitDy=0;entryX=1;entryY=0.5;entryDx=0;entryDy=0;" edge="1" parent="1" source="fZSX2Tx-VuzL_oRfiSZg-193" target="fZSX2Tx-VuzL_oRfiSZg-152">
          <mxGeometry relative="1" as="geometry">
            <mxPoint x="330" y="1670" as="sourcePoint" />
            <mxPoint x="210" y="1470" as="targetPoint" />
          </mxGeometry>
        </mxCell>
        <mxCell id="fZSX2Tx-VuzL_oRfiSZg-204" style="rounded=0;orthogonalLoop=1;jettySize=auto;html=1;endArrow=none;startFill=0;exitX=0;exitY=0.5;exitDx=0;exitDy=0;entryX=1;entryY=0.5;entryDx=0;entryDy=0;" edge="1" parent="1" source="fZSX2Tx-VuzL_oRfiSZg-193" target="fZSX2Tx-VuzL_oRfiSZg-151">
          <mxGeometry relative="1" as="geometry">
            <mxPoint x="330" y="1670" as="sourcePoint" />
            <mxPoint x="210" y="1390" as="targetPoint" />
          </mxGeometry>
        </mxCell>
        <mxCell id="fZSX2Tx-VuzL_oRfiSZg-205" style="rounded=0;orthogonalLoop=1;jettySize=auto;html=1;exitX=1;exitY=0.5;exitDx=0;exitDy=0;entryX=0;entryY=0.5;entryDx=0;entryDy=0;endArrow=none;startFill=0;" edge="1" parent="1" source="fZSX2Tx-VuzL_oRfiSZg-193" target="fZSX2Tx-VuzL_oRfiSZg-160">
          <mxGeometry relative="1" as="geometry">
            <mxPoint x="399.9999999999998" y="1660" as="sourcePoint" />
            <mxPoint x="530" y="1470" as="targetPoint" />
          </mxGeometry>
        </mxCell>
        <mxCell id="fZSX2Tx-VuzL_oRfiSZg-206" style="rounded=0;orthogonalLoop=1;jettySize=auto;html=1;exitX=1;exitY=0.5;exitDx=0;exitDy=0;entryX=0;entryY=0.5;entryDx=0;entryDy=0;endArrow=none;startFill=0;" edge="1" parent="1" source="fZSX2Tx-VuzL_oRfiSZg-193" target="fZSX2Tx-VuzL_oRfiSZg-159">
          <mxGeometry relative="1" as="geometry">
            <mxPoint x="399.9999999999998" y="1660" as="sourcePoint" />
            <mxPoint x="530" y="1470" as="targetPoint" />
          </mxGeometry>
        </mxCell>
        <mxCell id="fZSX2Tx-VuzL_oRfiSZg-207" style="rounded=0;orthogonalLoop=1;jettySize=auto;html=1;exitX=1;exitY=0.5;exitDx=0;exitDy=0;endArrow=none;startFill=0;entryX=0;entryY=0.5;entryDx=0;entryDy=0;" edge="1" parent="1" source="fZSX2Tx-VuzL_oRfiSZg-159" target="fZSX2Tx-VuzL_oRfiSZg-103">
          <mxGeometry relative="1" as="geometry">
            <mxPoint x="610" y="870" as="sourcePoint" />
            <mxPoint x="860" y="900" as="targetPoint" />
          </mxGeometry>
        </mxCell>
        <mxCell id="fZSX2Tx-VuzL_oRfiSZg-208" style="rounded=0;orthogonalLoop=1;jettySize=auto;html=1;exitX=1;exitY=0.5;exitDx=0;exitDy=0;endArrow=none;startFill=0;entryX=0;entryY=0.5;entryDx=0;entryDy=0;" edge="1" parent="1" source="fZSX2Tx-VuzL_oRfiSZg-159" target="fZSX2Tx-VuzL_oRfiSZg-104">
          <mxGeometry relative="1" as="geometry">
            <mxPoint x="610" y="1430" as="sourcePoint" />
            <mxPoint x="891" y="554" as="targetPoint" />
          </mxGeometry>
        </mxCell>
        <mxCell id="fZSX2Tx-VuzL_oRfiSZg-209" style="rounded=0;orthogonalLoop=1;jettySize=auto;html=1;endArrow=none;startFill=0;exitX=1;exitY=0.5;exitDx=0;exitDy=0;entryX=0;entryY=0.5;entryDx=0;entryDy=0;" edge="1" parent="1" source="fZSX2Tx-VuzL_oRfiSZg-160" target="fZSX2Tx-VuzL_oRfiSZg-103">
          <mxGeometry relative="1" as="geometry">
            <mxPoint x="620" y="1480" as="sourcePoint" />
            <mxPoint x="1000" y="900" as="targetPoint" />
          </mxGeometry>
        </mxCell>
        <mxCell id="fZSX2Tx-VuzL_oRfiSZg-210" style="rounded=0;orthogonalLoop=1;jettySize=auto;html=1;endArrow=none;startFill=0;exitX=1;exitY=0.5;exitDx=0;exitDy=0;entryX=0;entryY=0.5;entryDx=0;entryDy=0;" edge="1" parent="1" source="fZSX2Tx-VuzL_oRfiSZg-160" target="fZSX2Tx-VuzL_oRfiSZg-104">
          <mxGeometry relative="1" as="geometry">
            <mxPoint x="610" y="1510" as="sourcePoint" />
            <mxPoint x="891" y="554" as="targetPoint" />
          </mxGeometry>
        </mxCell>
      </root>
    </mxGraphModel>
  </diagram>
</mxfile>
